<?xml version="1.0" encoding="UTF-8"?>
<svg version="1.1" xmlns="http://www.w3.org/2000/svg" width="200" height="200">
<path d="M0 0 C66 0 132 0 200 0 C200 66 200 132 200 200 C134 200 68 200 0 200 C0 134 0 68 0 0 Z " fill="#F9FAFB" transform="translate(0,0)"/>
<path d="M0 0 C2.33199651 7.28748908 0.66152131 14.08233902 -2 21 C-6.31624745 29.01588812 -12.68237493 33.03603093 -20.6953125 36.84765625 C-24.21376629 38.60688314 -26.9497093 40.5996124 -29.3125 43.75 C-31.16818601 49.82315421 -30.25878955 53.84960562 -27.5 59.375 C-24.59092043 65.35891867 -23.64536471 70.50831455 -25.59375 76.96875 C-28.0367385 82.12617017 -32.79658166 85.82386552 -38 88 C-40.66015625 87.95703125 -40.66015625 87.95703125 -43 87 C-44.1875 84.91796875 -44.1875 84.91796875 -45 82.1875 C-46.34791469 77.99700716 -47.79113957 73.93354352 -49.5 69.875 C-49.91636719 68.864375 -50.33273438 67.85375 -50.76171875 66.8125 C-51.91116642 64.07256075 -51.91116642 64.07256075 -53.20703125 61.875 C-57.34564577 54.38747126 -57.23505498 45.30295527 -56 37 C-52.1143106 24.91749136 -41.83633619 16.79183486 -31 11 C-28.8139828 10.14655493 -26.64118249 9.46010179 -24.38671875 8.8125 C-21.38783031 7.79160181 -18.68833853 6.39134948 -15.875 4.9375 C-10.62200112 2.24073752 -6.00031736 0 0 0 Z " fill="#48AA3C" transform="translate(136,62)"/>
<path d="M0 0 C0.14700056 3.16616599 0.23462106 6.33143982 0.3125 9.5 C0.35439453 10.386875 0.39628906 11.27375 0.43945312 12.1875 C0.55970015 18.72893825 -0.69702893 22.9994755 -5 28 C-7.25390625 29.8828125 -7.25390625 29.8828125 -9.5625 31.125 C-10.85994141 31.83462891 -10.85994141 31.83462891 -12.18359375 32.55859375 C-13.11300781 33.03425781 -14.04242188 33.50992188 -15 34 C-16.00160156 34.52722656 -17.00320312 35.05445313 -18.03515625 35.59765625 C-22.36561372 37.8258436 -26.648128 39.95635644 -31.25 41.5625 C-36.95293108 43.58573903 -41.80126115 46.89373831 -46.375 50.8125 C-49 53 -49 53 -51 53 C-51.268125 53.7425 -51.53625 54.485 -51.8125 55.25 C-53 58 -53 58 -54.44140625 59.8515625 C-59.29082261 66.53622164 -60.64974405 74.92660027 -61 83 C-69.04315671 72.98466183 -72.45138924 57.26081912 -71.54296875 44.61328125 C-70.28964615 36.27282512 -66.06592886 31.25181406 -59.6796875 25.96484375 C-48.45474749 17.73431193 -35.9248166 12.88783201 -23 8 C-20.54113087 7.06389707 -18.08304365 6.12577038 -15.625 5.1875 C-14.19027344 4.65189453 -14.19027344 4.65189453 -12.7265625 4.10546875 C-9.89201635 3.0092416 -9.89201635 3.0092416 -6.8984375 1.36328125 C-4 0 -4 0 0 0 Z " fill="#1891BB" transform="translate(137,20)"/>
<path d="M0 0 C0.14700056 3.16616599 0.23462106 6.33143982 0.3125 9.5 C0.35439453 10.386875 0.39628906 11.27375 0.43945312 12.1875 C0.55970015 18.72893825 -0.69702893 22.9994755 -5 28 C-7.25390625 29.8828125 -7.25390625 29.8828125 -9.5625 31.125 C-10.85994141 31.83462891 -10.85994141 31.83462891 -12.18359375 32.55859375 C-13.11300781 33.03425781 -14.04242188 33.50992188 -15 34 C-16.00160156 34.52722656 -17.00320312 35.05445313 -18.03515625 35.59765625 C-24.55917744 38.95451671 -31.0431578 41.6810526 -38 44 C-38 43.01 -38 42.02 -38 41 C-36.02 40.34 -34.04 39.68 -32 39 C-32.66 38.34 -33.32 37.68 -34 37 C-35 34 -35 34 -34 31 C-36.76276177 31.52268466 -39.3260876 32.10869587 -42 33 C-42 33.66 -42 34.32 -42 35 C-42.66 35 -43.32 35 -44 35 C-42.06382979 28.29787234 -42.06382979 28.29787234 -39 26 C-38.34 26 -37.68 26 -37 26 C-37 25.34 -37 24.68 -37 24 C-36.34 23.67 -35.68 23.34 -35 23 C-39.41111478 21.21454878 -42.41050762 20.5034264 -47 22 C-47.99 23.2375 -47.99 23.2375 -49 24.5 C-51 27 -51 27 -54 27.6875 C-54.99 27.790625 -55.98 27.89375 -57 28 C-57.7425 28.37125 -58.485 28.7425 -59.25 29.125 C-59.8275 29.41375 -60.405 29.7025 -61 30 C-61.66 29.67 -62.32 29.34 -63 29 C-48.88950286 16.71864138 -30.14564647 10.58501127 -12.83203125 4.140625 C-9.9061179 3.01810697 -9.9061179 3.01810697 -6.88671875 1.359375 C-4 0 -4 0 0 0 Z " fill="#1CACB6" transform="translate(137,20)"/>
<path d="M0 0 C1.15135135 3.58198198 1.15135135 3.58198198 0.34375 5.8125 C-0.1629401 9.03689155 1.2258067 10.5330265 2.9375 13.25 C5.84846724 18.25847711 6.64732201 21.28198893 6 27 C5.01 27.495 5.01 27.495 4 28 C3.505 22.555 3.505 22.555 3 17 C-4.49136613 19.31875618 -11.25339029 22.00347895 -18.1953125 25.63671875 C-20.66442945 26.83688841 -22.92768703 27.64831671 -25.5625 28.375 C-35.99125356 31.61150972 -44.85920362 40.39929075 -50.375 49.625 C-53.05045753 55.31892244 -52.82640552 61.82003649 -53 68 C-53.66 68 -54.32 68 -55 68 C-55.33 65.69 -55.66 63.38 -56 61 C-56.66 61 -57.32 61 -58 61 C-57.79257496 49.47848207 -55.56501591 36.46679325 -47 28 C-39.29344286 21.50733697 -31.65164446 16.78524425 -22.3125 13.1875 C-16.88048197 11.07879735 -11.86527361 8.31595086 -6.78515625 5.48828125 C-4 4 -4 4 -1 3 C-0.67 2.01 -0.34 1.02 0 0 Z " fill="#DBF1F8" transform="translate(133,45)"/>
<path d="M0 0 C0.99 0 1.98 0 3 0 C3.14695312 0.92619141 3.14695312 0.92619141 3.296875 1.87109375 C4.10004031 6.42005588 5.03783989 10.36268616 7.125 14.5 C9.6736699 19.92310964 10.13467107 25.19772476 8.41015625 30.9765625 C5.9489659 36.12578101 1.20685113 39.82242988 -4 42 C-6.66015625 41.953125 -6.66015625 41.953125 -9 41 C-10.1875 38.953125 -10.1875 38.953125 -11 36.25 C-12.02794282 32.9382177 -13.07195113 29.84511284 -14.53515625 26.6953125 C-18.30978405 18.48959989 -18.30978405 18.48959989 -17.44921875 14.3515625 C-13.91880116 7.42872411 -8.19008218 3.53767606 -1 1 C-0.67 0.67 -0.34 0.34 0 0 Z " fill="#9DB623" transform="translate(102,108)"/>
<path d="M0 0 C1.69057861 5.28305817 1.29188056 10.67099269 0 16 C-0.33 16 -0.66 16 -1 16 C-1.495 10.555 -1.495 10.555 -2 5 C-3.051875 6.8253125 -3.051875 6.8253125 -4.125 8.6875 C-6.63801387 12.72398403 -9.24157922 15.12120962 -13 18 C-13.66 18.7425 -14.32 19.485 -15 20.25 C-17.57380567 22.50207996 -19.64835378 22.69530489 -23 23 C-23 23.66 -23 24.32 -23 25 C-24.155 25.4125 -25.31 25.825 -26.5 26.25 C-30.26747752 27.6510726 -33.78962816 29.3442843 -37.3359375 31.23046875 C-39 32 -39 32 -41 32 C-41.33 32.99 -41.66 33.98 -42 35 C-43.485 35.495 -43.485 35.495 -45 36 C-45.33 36.66 -45.66 37.32 -46 38 C-46.66 38 -47.32 38 -48 38 C-49 35 -49 35 -48 32 C-48.66 31.67 -49.32 31.34 -50 31 C-49.195625 30.236875 -48.39125 29.47375 -47.5625 28.6875 C-44.83200976 26.20569102 -44.83200976 26.20569102 -44 23 C-44.66 22.67 -45.32 22.34 -46 22 C-38.52348428 14.75320963 -30.48186866 11.04912417 -21 7 C-19.81019531 6.48179688 -18.62039062 5.96359375 -17.39453125 5.4296875 C-16.21246094 4.91664062 -15.03039062 4.40359375 -13.8125 3.875 C-12.62269531 3.35679688 -11.43289062 2.83859375 -10.20703125 2.3046875 C-6.5527675 0.81805645 -3.92924039 0 0 0 Z " fill="#5AC050" transform="translate(136,62)"/>
<path d="M0 0 C-0.92373999 5.99741634 -5.7327502 10.0393055 -10 14 C-13.84424046 16.65083614 -17.88090543 18.80997208 -22 21 C-24.21252768 22.30541703 -26.42099856 23.61773866 -28.625 24.9375 C-33.75384615 28 -33.75384615 28 -36 28 C-36 28.66 -36 29.32 -36 30 C-39.46153846 33 -39.46153846 33 -42 33 C-42 33.66 -42 34.32 -42 35 C-42.66 35 -43.32 35 -44 35 C-42.06382979 28.29787234 -42.06382979 28.29787234 -39 26 C-38.34 26 -37.68 26 -37 26 C-37 25.34 -37 24.68 -37 24 C-36.34 23.67 -35.68 23.34 -35 23 C-39.41111478 21.21454878 -42.41050762 20.5034264 -47 22 C-47.99 23.2375 -47.99 23.2375 -49 24.5 C-51 27 -51 27 -54 27.6875 C-54.99 27.790625 -55.98 27.89375 -57 28 C-57.7425 28.37125 -58.485 28.7425 -59.25 29.125 C-59.8275 29.41375 -60.405 29.7025 -61 30 C-61.66 29.67 -62.32 29.34 -63 29 C-48.88950286 16.71864138 -30.14564647 10.58501127 -12.83203125 4.140625 C-9.9061179 3.01810697 -9.9061179 3.01810697 -6.88671875 1.359375 C-4 0 -4 0 0 0 Z " fill="#34BECC" transform="translate(137,20)"/>
<path d="M0 0 C1.11375 0.3403125 1.11375 0.3403125 2.25 0.6875 C2.023125 1.285625 1.79625 1.88375 1.5625 2.5 C1.459375 3.221875 1.35625 3.94375 1.25 4.6875 C2.60444301 6.45940909 2.60444301 6.45940909 4.25 7.6875 C3 9.1875 3 9.1875 1.25 10.6875 C-0.07 10.6875 -1.39 10.6875 -2.75 10.6875 C-2.84474609 11.54601562 -2.84474609 11.54601562 -2.94140625 12.421875 C-4.08564043 15.62794178 -6.01957192 16.87052559 -8.6875 18.9375 C-9.58339844 19.64390625 -10.47929688 20.3503125 -11.40234375 21.078125 C-13.75 22.6875 -13.75 22.6875 -15.75 22.6875 C-16.018125 23.43 -16.28625 24.1725 -16.5625 24.9375 C-17.75 27.6875 -17.75 27.6875 -19.19140625 29.5390625 C-24.04082261 36.22372164 -25.39974405 44.61410027 -25.75 52.6875 C-29.84591497 47.60489403 -31.46027473 42.25363808 -32.1875 35.8125 C-31.75 32.6875 -31.75 32.6875 -29.9375 30.6875 C-27.75 29.6875 -27.75 29.6875 -24.75 30.6875 C-22.55764027 29.88024539 -22.55764027 29.88024539 -22.0390625 27.68359375 C-21.71035156 26.41708984 -21.71035156 26.41708984 -21.375 25.125 C-20.01222612 20.26793411 -18.13360706 16.12594074 -15.75 11.6875 C-15.09 11.6875 -14.43 11.6875 -13.75 11.6875 C-13.481875 11.089375 -13.21375 10.49125 -12.9375 9.875 C-11.75082594 7.68902146 -10.65400887 6.27417406 -8.75 4.6875 C-8.09 4.6875 -7.43 4.6875 -6.75 4.6875 C-6.75 4.0275 -6.75 3.3675 -6.75 2.6875 C-4.35939287 0.29689287 -3.42334736 -0.38901675 0 0 Z " fill="#118BAA" transform="translate(101.75,50.3125)"/>
<path d="M0 0 C1.69057861 5.28305817 1.29188056 10.67099269 0 16 C-0.33 16 -0.66 16 -1 16 C-1.33 12.37 -1.66 8.74 -2 5 C-2.70125 6.216875 -3.4025 7.43375 -4.125 8.6875 C-6.63801387 12.72398403 -9.24157922 15.12120962 -13 18 C-13.61875 18.721875 -14.2375 19.44375 -14.875 20.1875 C-17.99358029 22.84746554 -21.00418453 23.20083691 -25 24 C-24.9278125 23.38511719 -24.855625 22.77023438 -24.78125 22.13671875 C-24.6884375 21.32847656 -24.595625 20.52023438 -24.5 19.6875 C-24.4071875 18.88699219 -24.314375 18.08648437 -24.21875 17.26171875 C-23.95186537 14.88103445 -23.95186537 14.88103445 -24 12 C-26.31 12 -28.62 12 -31 12 C-27.80524428 9.87016285 -24.52219744 8.46886202 -21 7 C-19.81019531 6.48179688 -18.62039062 5.96359375 -17.39453125 5.4296875 C-16.21246094 4.91664062 -15.03039062 4.40359375 -13.8125 3.875 C-12.62269531 3.35679688 -11.43289062 2.83859375 -10.20703125 2.3046875 C-6.5527675 0.81805645 -3.92924039 0 0 0 Z " fill="#85D839" transform="translate(136,62)"/>
<path d="M0 0 C-0.41927628 2.93493396 -0.87924008 3.88989537 -3.125 5.9375 C-3.74375 6.618125 -4.3625 7.29875 -5 8 C-4.84298574 10.61915122 -4.84298574 10.61915122 -4 13 C-4 13.66 -4 14.32 -4 15 C-3.34 15 -2.68 15 -2 15 C-1.67 14.01 -1.34 13.02 -1 12 C0.65 11.67 2.3 11.34 4 11 C3.60167969 11.51949219 3.20335938 12.03898437 2.79296875 12.57421875 C-0.4837012 16.88730499 -3.57010396 21.14020791 -6 26 C-5.01 26.66 -4.02 27.32 -3 28 C-2.608125 27.236875 -2.21625 26.47375 -1.8125 25.6875 C0.19488078 22.71103884 1.74426417 21.46508112 5 20 C5.99 20.33 6.98 20.66 8 21 C7.38125 21.2475 6.7625 21.495 6.125 21.75 C3.55750184 23.26029304 3.28184271 24.36091208 2 27 C1.21625 27.7425 0.4325 28.485 -0.375 29.25 C-3.50624814 32.53035519 -5.17570834 35.89279587 -7 40 C-10.90217761 36.62993752 -12.03705485 32.98891391 -12.40625 27.9609375 C-12.76299972 17.28052497 -11.63516571 9.65444633 -4.48828125 1.21484375 C-3 0 -3 0 0 0 Z " fill="#1D9873" transform="translate(92,85)"/>
<path d="M0 0 C0.66 0.33 1.32 0.66 2 1 C2.40646414 6.61146322 2.68074467 11.572633 -0.53125 16.390625 C-3.47899617 19.62060218 -6.9604245 22.31059912 -11 24 C-13.64453125 23.9921875 -13.64453125 23.9921875 -16 23 C-17.328125 20.6015625 -17.328125 20.6015625 -18.25 17.625 C-18.56453125 16.64789063 -18.8790625 15.67078125 -19.203125 14.6640625 C-19.46609375 13.78492188 -19.7290625 12.90578125 -20 12 C-20.33 11.01 -20.66 10.02 -21 9 C-20.01 9.33 -19.02 9.66 -18 10 C-18 10.66 -18 11.32 -18 12 C-15.06506604 11.58072372 -14.11010463 11.12075992 -12.0625 8.875 C-11.381875 8.25625 -10.70125 7.6375 -10 7 C-7.25 7.25 -7.25 7.25 -5 8 C-4.67 7.34 -4.34 6.68 -4 6 C-3.34 6.33 -2.68 6.66 -2 7 C-1.375 9.0625 -1.375 9.0625 -1 11 C0.25949049 9.96593327 0.25949049 9.96593327 0.09765625 7.71484375 C0.08605469 6.79832031 0.07445313 5.88179687 0.0625 4.9375 C0.05347656 4.01839844 0.04445313 3.09929687 0.03515625 2.15234375 C0.02355469 1.44207031 0.01195313 0.73179688 0 0 Z " fill="#C9CE26" transform="translate(109,126)"/>
<path d="M0 0 C-0.92362137 5.99664618 -5.73246326 10.04117869 -10 14 C-13.81806183 16.7089833 -17.66910091 19.19871014 -22 21 C-22.99 20.67 -23.98 20.34 -25 20 C-22.69 18.35 -20.38 16.7 -18 15 C-18.33 13.35 -18.66 11.7 -19 10 C-27.62773927 12.64501642 -27.62773927 12.64501642 -35.625 16.6875 C-38.57230907 18.31627606 -40.68443178 18.23131871 -44 18 C-42.69717627 15.39435253 -41.66606129 15.27773236 -38.984375 14.23046875 C-38.15115723 13.90135498 -37.31793945 13.57224121 -36.45947266 13.2331543 C-35.56534668 12.88808838 -34.6712207 12.54302246 -33.75 12.1875 C-32.84427246 11.83147705 -31.93854492 11.4754541 -31.00537109 11.10864258 C-24.93085067 8.72665763 -18.839365 6.38747184 -12.7265625 4.10546875 C-9.89201635 3.0092416 -9.89201635 3.0092416 -6.8984375 1.36328125 C-4 0 -4 0 0 0 Z " fill="#3FDDDC" transform="translate(137,20)"/>
<path d="M0 0 C1.765625 0.05859375 1.765625 0.05859375 4 1 C5.43642046 3.36191901 6.61250829 5.56538837 7.75 8.0625 C8.06582031 8.72572266 8.38164063 9.38894531 8.70703125 10.07226562 C9.48411278 11.70884642 10.24375767 13.35368595 11 15 C8.03291147 17.38154369 5.05742925 19.73523759 2 22 C-2.84757102 19.03759549 -4.40926195 15.48901903 -6.49609375 10.4375 C-7 8 -7 8 -6.28515625 5.75 C-5 4 -5 4 -2 3 C-1.34 2.01 -0.68 1.02 0 0 Z " fill="#97CD14" transform="translate(91,117)"/>
<path d="M0 0 C1.98 0 3.96 0 6 0 C5.443125 0.94875 4.88625 1.8975 4.3125 2.875 C3.54138196 4.24984035 2.77057624 5.6248559 2 7 C1.56816406 7.72574219 1.13632813 8.45148438 0.69140625 9.19921875 C-3.21603607 16.21406327 -4.23398102 23.06541533 -5 31 C-9.09591497 25.91739403 -10.71027473 20.56613808 -11.4375 14.125 C-11 11 -11 11 -9.1875 9 C-7 8 -7 8 -4 9 C-1.82961523 8.20700294 -1.82961523 8.20700294 -1.3671875 6.15234375 C-1.20476562 5.42144531 -1.04234375 4.69054687 -0.875 3.9375 C-0.70742187 3.20402344 -0.53984375 2.47054687 -0.3671875 1.71484375 C-0.24601562 1.14894531 -0.12484375 0.58304687 0 0 Z " fill="#116DA6" transform="translate(81,72)"/>
<path d="M0 0 C1.69057861 5.28305817 1.29188056 10.67099269 0 16 C-0.33 16 -0.66 16 -1 16 C-1.33 12.37 -1.66 8.74 -2 5 C-2.70125 6.216875 -3.4025 7.43375 -4.125 8.6875 C-6.60626828 12.69023364 -9.2383857 15.20065913 -13 18 C-13.66 17.67 -14.32 17.34 -15 17 C-13.71034824 15.62437146 -12.37310707 14.29233607 -11 13 C-10.34 13 -9.68 13 -9 13 C-9 12.34 -9 11.68 -9 11 C-9.66 10.67 -10.32 10.34 -11 10 C-10.34 8.68 -9.68 7.36 -9 6 C-12.63 6.66 -16.26 7.32 -20 8 C-20 8.66 -20 9.32 -20 10 C-23.08888522 12.05925681 -23.70935927 12.2390374 -27.1875 12.125 C-29.0746875 12.063125 -29.0746875 12.063125 -31 12 C-27.80524428 9.87016285 -24.52219744 8.46886202 -21 7 C-19.81019531 6.48179688 -18.62039062 5.96359375 -17.39453125 5.4296875 C-16.21246094 4.91664062 -15.03039062 4.40359375 -13.8125 3.875 C-12.62269531 3.35679688 -11.43289062 2.83859375 -10.20703125 2.3046875 C-6.5527675 0.81805645 -3.92924039 0 0 0 Z " fill="#ABE54B" transform="translate(136,62)"/>
<path d="M0 0 C-0.41927628 2.93493396 -0.87924008 3.88989537 -3.125 5.9375 C-3.74375 6.618125 -4.3625 7.29875 -5 8 C-4.84298574 10.61915122 -4.84298574 10.61915122 -4 13 C-4 13.66 -4 14.32 -4 15 C-3.34 15 -2.68 15 -2 15 C-1.67 14.01 -1.34 13.02 -1 12 C0.65 11.67 2.3 11.34 4 11 C2.38405168 13.04119788 0.7143618 15.04072937 -1 17 C-1.66 17 -2.32 17 -3 17 C-3.33 17.66 -3.66 18.32 -4 19 C-4.99 18.67 -5.98 18.34 -7 18 C-7.99 18.66 -8.98 19.32 -10 20 C-10.58481121 22.88595946 -10.58481121 22.88595946 -10.6875 26.125 C-10.75324219 27.22070312 -10.81898437 28.31640625 -10.88671875 29.4453125 C-10.92410156 30.28835937 -10.96148437 31.13140625 -11 32 C-11.33 32 -11.66 32 -12 32 C-12.71846693 19.90580669 -12.70645667 10.91951085 -4.48828125 1.21484375 C-3 0 -3 0 0 0 Z " fill="#31A36D" transform="translate(92,85)"/>
<path d="M0 0 C0.33 0 0.66 0 1 0 C1.91838044 16.81656635 1.91838044 16.81656635 -2.44140625 22.38671875 C-10.43698854 30.66284779 -10.43698854 30.66284779 -16 31 C-15.67 30.34 -15.34 29.68 -15 29 C-14.34 29 -13.68 29 -13 29 C-13 28.34 -13 27.68 -13 27 C-11.02 26.34 -9.04 25.68 -7 25 C-6.67 22.69 -6.34 20.38 -6 18 C-5.01 17.67 -4.02 17.34 -3 17 C-3.33 16.01 -3.66 15.02 -4 14 C-4.66 13.67 -5.32 13.34 -6 13 C-6 13.66 -6 14.32 -6 15 C-7.32 15.33 -8.64 15.66 -10 16 C-10 15.01 -10 14.02 -10 13 C-8.5399755 11.83861687 -7.07794169 10.67958291 -5.6015625 9.5390625 C-2.83496412 6.88042894 -1.47368406 3.49349809 0 0 Z " fill="#7EC919" transform="translate(134,65)"/>
<path d="M0 0 C0.33 1.65 0.66 3.3 1 5 C-3.75 8.875 -3.75 8.875 -6 10 C-5.67 10.66 -5.34 11.32 -5 12 C-8.24308238 13.01925446 -9.62697233 13.15750057 -12.8125 11.8125 C-13.534375 11.214375 -14.25625 10.61625 -15 10 C-15 8 -15 6 -15 4 C-13.7625 3.54625 -12.525 3.0925 -11.25 2.625 C-8.9470172 1.77204341 -6.85159402 0.91978055 -4.6875 -0.25 C-3 -1 -3 -1 0 0 Z " fill="#38CED5" transform="translate(119,30)"/>
<path d="M0 0 C0.92926933 2.97875376 1.11013498 3.73078115 -0.125 6.75 C-2 9 -2 9 -4.6875 9.3125 C-5.450625 9.209375 -6.21375 9.10625 -7 9 C-7.33 9.99 -7.66 10.98 -8 12 C-9.65204456 12.70211894 -11.31923769 13.36971413 -13 14 C-13.33 14.66 -13.66 15.32 -14 16 C-14.7425 16.37125 -15.485 16.7425 -16.25 17.125 C-21.02662174 20.38178755 -23.51769566 24.92238128 -24.8125 30.5 C-24.874375 31.325 -24.93625 32.15 -25 33 C-27 31 -27 31 -27.375 27.25 C-27.22153736 22.77535244 -26.02869635 20.39804957 -23 17 C-18.887257 13.76798193 -14.57335933 11.20991256 -9.8125 9.0625 C-5.44304978 7.00474288 -2.83829574 3.82739881 0 0 Z " fill="#DAF5D8" transform="translate(132,85)"/>
<path d="M0 0 C0.99 0 1.98 0 3 0 C3 3.63 3 7.26 3 11 C1.576875 10.9690625 1.576875 10.9690625 0.125 10.9375 C-2.90666283 10.77448174 -2.90666283 10.77448174 -5 12 C-5.99 11.34 -6.98 10.68 -8 10 C-8.99 10 -9.98 10 -11 10 C-11.99 11.485 -11.99 11.485 -13 13 C-13.66 13 -14.32 13 -15 13 C-13.81769204 8.40213569 -11.60359319 6.58856206 -7.81640625 4.06640625 C-5.62623736 2.78056516 -3.39248842 1.84440768 -1 1 C-0.67 0.67 -0.34 0.34 0 0 Z " fill="#68A40F" transform="translate(102,108)"/>
<path d="M0 0 C0 3 0 3 -1 5.875 C-1.94318176 8.82244301 -2.17993185 10.94115853 -2 14 C-2.66 14 -3.32 14 -4 14 C-3.835 15.155 -3.67 16.31 -3.5 17.5 C-3.11745109 20.48600677 -2.95590464 23.36549181 -3 26.375 C-3.27019155 29.8322949 -3.27019155 29.8322949 -2 32 C-2.28112064 34.00800456 -2.61067967 36.01014051 -3 38 C-8.14403997 30.28394005 -8.18466029 19.98163643 -7 11 C-5.45659361 6.54190794 -3.3148265 3.3148265 0 0 Z " fill="#2F85B1" transform="translate(73,50)"/>
<path d="M0 0 C-0.375 1.9375 -0.375 1.9375 -1 4 C-1.66 4.33 -2.32 4.66 -3 5 C-3 4.34 -3 3.68 -3 3 C-6.46845137 4.04053541 -9.66456962 5.28152702 -12.875 6.9375 C-17.4798009 9.30118107 -22.23437284 11.01997257 -27.10546875 12.74609375 C-30.19516854 13.8648781 -32.84549456 14.90067508 -35.625 16.6875 C-38.57230907 18.31627606 -40.68443178 18.23131871 -44 18 C-42.69717627 15.39435253 -41.66606129 15.27773236 -38.984375 14.23046875 C-38.15115723 13.90135498 -37.31793945 13.57224121 -36.45947266 13.2331543 C-35.56534668 12.88808838 -34.6712207 12.54302246 -33.75 12.1875 C-32.84427246 11.83147705 -31.93854492 11.4754541 -31.00537109 11.10864258 C-24.93085067 8.72665763 -18.839365 6.38747184 -12.7265625 4.10546875 C-9.89201635 3.0092416 -9.89201635 3.0092416 -6.8984375 1.36328125 C-4 0 -4 0 0 0 Z " fill="#64D4D5" transform="translate(137,20)"/>
<path d="M0 0 C5.6939659 1.42615221 5.6939659 1.42615221 7.52734375 4.0234375 C7.69234375 4.6421875 7.85734375 5.2609375 8.02734375 5.8984375 C7.28484375 6.3315625 6.54234375 6.7646875 5.77734375 7.2109375 C3.40900449 8.66423659 1.2181031 10.19451356 -0.97265625 11.8984375 C-3.76994705 9.83087473 -3.99957898 8.75403379 -4.66015625 5.2109375 C-4.76328125 4.1178125 -4.86640625 3.0246875 -4.97265625 1.8984375 C-1.97265625 -0.1015625 -1.97265625 -0.1015625 0 0 Z " fill="#B8D21C" transform="translate(93.97265625,127.1015625)"/>
<path d="M0 0 C0.66 0.33 1.32 0.66 2 1 C2.40646414 6.61146322 2.68074467 11.572633 -0.53125 16.390625 C-3.47899617 19.62060218 -6.9604245 22.31059912 -11 24 C-13.78515625 23.65625 -13.78515625 23.65625 -16 23 C-16.33 21.35 -16.66 19.7 -17 18 C-13.71023192 16.90341064 -12.28696233 17.20046862 -9 18 C-9 17.01 -9 16.02 -9 15 C-8.34 15 -7.68 15 -7 15 C-6.67 15.66 -6.34 16.32 -6 17 C-5.01 16.67 -4.02 16.34 -3 16 C-2.40929986 14.05396726 -2.40929986 14.05396726 -2 12 C-1.34 11.34 -0.68 10.68 0 10 C0.24287489 7.55987051 0.24287489 7.55987051 0.125 4.875 C0.10695313 3.96492187 0.08890625 3.05484375 0.0703125 2.1171875 C0.04710938 1.41851562 0.02390625 0.71984375 0 0 Z " fill="#D8D44C" transform="translate(109,126)"/>
<path d="M0 0 C-0.928125 0.5775 -1.85625 1.155 -2.8125 1.75 C-5.99340614 3.71863442 -5.99340614 3.71863442 -7.5 6.1875 C-9.66166869 8.79951633 -11.7180506 8.59812864 -15 9 C-15.7425 9.37125 -16.485 9.7425 -17.25 10.125 C-17.8275 10.41375 -18.405 10.7025 -19 11 C-19.66 10.67 -20.32 10.34 -21 10 C-6.29998414 -2.11390196 -6.29998414 -2.11390196 0 0 Z " fill="#28AAC3" transform="translate(95,39)"/>
<path d="M0 0 C0.66 0.33 1.32 0.66 2 1 C-1.69546769 3.830571 -5.05453659 6.12859124 -9.375 7.875 C-13.8465798 9.74326279 -17.32308291 12.35120425 -21.0546875 15.4140625 C-23 17 -23 17 -26 19 C-25.64037102 16.14820529 -25.11014144 15.10604616 -23.00390625 13.078125 C-22.19824219 12.47484375 -21.39257812 11.8715625 -20.5625 11.25 C-19.75941406 10.63640625 -18.95632812 10.0228125 -18.12890625 9.390625 C-16 8 -16 8 -14 8 C-14 7.34 -14 6.68 -14 6 C-12.989375 5.7525 -11.97875 5.505 -10.9375 5.25 C-8.06421604 4.4499189 -5.73496095 3.35917272 -3.1875 1.8125 C-2.135625 1.214375 -1.08375 0.61625 0 0 Z " fill="#DAEAF8" transform="translate(58,64)"/>
<path d="M0 0 C0.99 0.33 1.98 0.66 3 1 C3 1.66 3 2.32 3 3 C6.34252724 3.07427838 8.8035914 3.06546953 12 2 C12.93423645 5.01031744 13.04449911 5.86650268 12 9 C9.33333333 9 6.66666667 9 4 9 C2.68 6.03 1.36 3.06 0 0 Z " fill="#D4D731" transform="translate(88,135)"/>
<path d="M0 0 C0.66 0.33 1.32 0.66 2 1 C2.92851389 18.00212102 2.92851389 18.00212102 -1.23828125 23.38671875 C-5.71420057 27.48550961 -11.00766667 30.79599769 -17 32 C-17 31.34 -17 30.68 -17 30 C-15.35 29.67 -13.7 29.34 -12 29 C-12 28.34 -12 27.68 -12 27 C-11.0925 26.608125 -10.185 26.21625 -9.25 25.8125 C-4.72643942 23.28974506 -1.86347181 19.82072054 0 15 C0.13958857 12.37573495 0.18931369 9.86707253 0.125 7.25 C0.11597656 6.55261719 0.10695312 5.85523438 0.09765625 5.13671875 C0.07419888 3.42433042 0.03833104 1.71211996 0 0 Z " fill="#3EAFB2" transform="translate(135,23)"/>
<path d="M0 0 C2 1 2 1 3 3 C2.1686688 5.41841803 1.49607687 6.6876553 -0.6875 8.0625 C-1.450625 8.371875 -2.21375 8.68125 -3 9 C-8.17093667 11.17648804 -8.17093667 11.17648804 -13 14 C-11.65284929 10.9055548 -10.2482789 9.10778741 -7.625 7 C-4.93457815 4.78700165 -2.41806375 2.5147863 0 0 Z " fill="#45A630" transform="translate(103,102)"/>
<path d="M0 0 C0.33 0 0.66 0 1 0 C1 2.64 1 5.28 1 8 C1.66 8 2.32 8 3 8 C3 6.35 3 4.7 3 3 C3.66 3 4.32 3 5 3 C4.67 8.61 4.34 14.22 4 20 C3.34 20 2.68 20 2 20 C1.67 17.69 1.34 15.38 1 13 C0.34 13 -0.32 13 -1 13 C-0.67 8.71 -0.34 4.42 0 0 Z " fill="#BEE3E8" transform="translate(76,93)"/>
<path d="M0 0 C0.66 0.33 1.32 0.66 2 1 C2.08797875 4.51914996 1.43698623 6.5053496 -0.89453125 9.14453125 C-7.62898332 15.34290753 -7.62898332 15.34290753 -13 16 C-12.67 15.34 -12.34 14.68 -12 14 C-11.34 14 -10.68 14 -10 14 C-10 13.34 -10 12.68 -10 12 C-8.02 11.34 -6.04 10.68 -4 10 C-3.67 7.69 -3.34 5.38 -3 3 C-2.01 2.67 -1.02 2.34 0 2 C0 1.34 0 0.68 0 0 Z " fill="#76BF32" transform="translate(131,80)"/>
<path d="M0 0 C-0.33 1.32 -0.66 2.64 -1 4 C-2.32 4.33 -3.64 4.66 -5 5 C-4.34 5.33 -3.68 5.66 -3 6 C-4.32 6 -5.64 6 -7 6 C-7 5.34 -7 4.68 -7 4 C-7.5775 4.350625 -8.155 4.70125 -8.75 5.0625 C-11.39786506 6.16577711 -12.33185326 5.80156509 -15 5 C-9.67113839 0.55928199 -6.92088947 -0.60709557 0 0 Z " fill="#7FD159" transform="translate(111,74)"/>
<path d="M0 0 C0.5775 0.226875 1.155 0.45375 1.75 0.6875 C1.13125 0.935 0.5125 1.1825 -0.125 1.4375 C-2.69249816 2.94779304 -2.96815729 4.04841208 -4.25 6.6875 C-5.8954378 8.37512851 -7.56288577 10.0415349 -9.25 11.6875 C-10.27813611 12.99925986 -11.29084432 14.3244893 -12.25 15.6875 C-12.25 12.7175 -12.25 9.7475 -12.25 6.6875 C-10.93 6.6875 -9.61 6.6875 -8.25 6.6875 C-8.0025 6.089375 -7.755 5.49125 -7.5 4.875 C-5.66616692 1.66579211 -3.87690717 -0.53845933 0 0 Z " fill="#1D8D4C" transform="translate(98.25,105.3125)"/>
<path d="M0 0 C0.66 0.99 1.32 1.98 2 3 C1.67 3.33 1.34 3.66 1 4 C1.66 4.33 2.32 4.66 3 5 C2.4140625 11.15234375 2.4140625 11.15234375 2 13 C1.01 13.495 1.01 13.495 0 14 C-0.33 13.01 -0.66 12.02 -1 11 C-1.66 10.67 -2.32 10.34 -3 10 C-3.36923077 3.47692308 -3.36923077 3.47692308 -1.5 1.0625 C-1.005 0.711875 -0.51 0.36125 0 0 Z " fill="#0665A7" transform="translate(73,80)"/>
<path d="M0 0 C0.99 0 1.98 0 3 0 C2.41457824 3.62636257 0.97353457 5.45885414 -1.5 8.125 C-4.05461886 10.85237239 -4.05461886 10.85237239 -6 14 C-6.66 14 -7.32 14 -8 14 C-7.37193369 10.8526115 -6.29002627 8.57137632 -4.5625 5.875 C-4.13066406 5.19179687 -3.69882813 4.50859375 -3.25390625 3.8046875 C-2 2 -2 2 0 0 Z " fill="#4FB265" transform="translate(89,85)"/>
<path d="M0 0 C0.93423645 3.01031744 1.04449911 3.86650268 0 7 C-4.27699513 10.49935965 -7.72095072 10.26842623 -13 10 C-3.9 3 -3.9 3 -1 3 C-0.67 2.01 -0.34 1.02 0 0 Z " fill="#C3EEF5" transform="translate(133,45)"/>
<path d="M0 0 C0.33 0 0.66 0 1 0 C1.495349 2.72441952 1.33972401 4.45030767 -0.125 6.8203125 C-3.30759547 10.78198081 -5.85433935 13.03518863 -11 14 C-14.375 14.125 -14.375 14.125 -17 14 C-16.67 13.34 -16.34 12.68 -16 12 C-15.13375 11.896875 -14.2675 11.79375 -13.375 11.6875 C-9.03199541 10.80281388 -6.19351711 9.04835725 -3 6 C-1.05447211 2.86653522 -1.05447211 2.86653522 0 0 Z " fill="#FCF9D7" transform="translate(110,137)"/>
<path d="M0 0 C0.66 0.33 1.32 0.66 2 1 C1.57847656 1.58007812 1.15695313 2.16015625 0.72265625 2.7578125 C-3.53046009 8.81444492 -3.53046009 8.81444492 -5 16 C-7 14 -7 14 -7.23046875 12.125 C-7.21628906 11.42375 -7.20210938 10.7225 -7.1875 10 C-7.18105469 9.29875 -7.17460938 8.5975 -7.16796875 7.875 C-7 6 -7 6 -6 4 C-4.35178756 2.96986723 -2.68496298 1.96885372 -1 1 C-0.67 0.67 -0.34 0.34 0 0 Z " fill="#EAF8E7" transform="translate(112,102)"/>
<path d="M0 0 C0.99 0 1.98 0 3 0 C0.48170455 6.79939772 -6.90247526 10.32627489 -12.73046875 13.9609375 C-15 15 -15 15 -18 14 C-17.10796875 13.45730469 -16.2159375 12.91460937 -15.296875 12.35546875 C-14.11451896 11.63291783 -12.93223087 10.9102557 -11.75 10.1875 C-11.16347656 9.83107422 -10.57695313 9.47464844 -9.97265625 9.10742188 C-3.66321923 5.68451292 -3.66321923 5.68451292 0 0 Z " fill="#57DCE0" transform="translate(130,26)"/>
<path d="M0 0 C-0.185625 0.598125 -0.37125 1.19625 -0.5625 1.8125 C-1.22093687 4.16408762 -1.22093687 4.16408762 0 7 C-1.98 7.99 -1.98 7.99 -4 9 C-4.433125 7.576875 -4.433125 7.576875 -4.875 6.125 C-5.76825109 2.94788422 -5.76825109 2.94788422 -8 1 C-5.29120665 -0.35439668 -2.99066732 -0.06501451 0 0 Z " fill="#9BE42F" transform="translate(127,68)"/>
<path d="M0 0 C2.67927341 4.01891012 2.15601248 6.24161923 2 11 C1.01 11.495 1.01 11.495 0 12 C-0.33 8.37 -0.66 4.74 -1 1 C-4.96 1.99 -8.92 2.98 -13 4 C-13 3.34 -13 2.68 -13 2 C-3.64719905 -0.5363528 -3.64719905 -0.5363528 0 0 Z " fill="#E1F8D7" transform="translate(137,61)"/>
<path d="M0 0 C2 0.3125 2 0.3125 4 1 C4.33 1.66 4.66 2.32 5 3 C3.35 3.33 1.7 3.66 0 4 C0.99 4.99 1.98 5.98 3 7 C-0.94727588 7.17942163 -3.5980513 7.09350689 -7 5 C-5.60683123 2.21366246 -3.84019484 2.06507306 -1 1 C-0.67 0.67 -0.34 0.34 0 0 Z " fill="#2FC0CF" transform="translate(101,35)"/>
<path d="M0 0 C0.66 0 1.32 0 2 0 C2 4.29 2 8.58 2 13 C1.67 13 1.34 13 1 13 C0.67 10.36 0.34 7.72 0 5 C-1.175625 6.2375 -1.175625 6.2375 -2.375 7.5 C-5 10 -5 10 -7 10 C-5.32598022 6.04322598 -2.86850715 3.15535787 0 0 Z " fill="#2CBEBB" transform="translate(134,25)"/>
<path d="M0 0 C0.33 0 0.66 0 1 0 C1 3.63 1 7.26 1 11 C-0.65 11 -2.3 11 -4 11 C-3.39301257 6.87248551 -1.96189209 3.6678852 0 0 Z " fill="#71A224" transform="translate(104,108)"/>
<path d="M0 0 C1.98 0 3.96 0 6 0 C5.401875 1.03125 4.80375 2.0625 4.1875 3.125 C2.33606301 6.36007317 0.63454714 9.64917836 -1 13 C-1.33 13 -1.66 13 -2 13 C-1.48041715 8.62065881 -0.94324258 4.31196609 0 0 Z " fill="#1B7AA2" transform="translate(81,72)"/>
<path d="M0 0 C0.99 0.99 1.98 1.98 3 3 C3.66 2.34 4.32 1.68 5 1 C5 4.96 5 8.92 5 13 C2.33394431 9.44525908 1.58635561 8.29786012 0.8125 4.25 C0.65394531 3.45078125 0.49539062 2.6515625 0.33203125 1.828125 C0.22246094 1.22484375 0.11289063 0.6215625 0 0 Z " fill="#176295" transform="translate(71,90)"/>
<path d="M0 0 C0.66 0.33 1.32 0.66 2 1 C-2.625 4 -2.625 4 -6 4 C-6 4.66 -6 5.32 -6 6 C-9.08888522 8.05925681 -9.70935927 8.2390374 -13.1875 8.125 C-15.0746875 8.063125 -15.0746875 8.063125 -17 8 C-14.35848297 6.23898864 -11.83143401 5.01022746 -8.91015625 3.80078125 C-7.61651461 3.25845704 -6.33258168 2.69247727 -5.05859375 2.10546875 C-3.39754665 1.34603386 -1.70035031 0.66680404 0 0 Z " fill="#A4DD6E" transform="translate(122,66)"/>
<path d="M0 0 C1.90389849 2.85584773 2.69462177 4.9311762 3.625 8.1875 C3.88539062 9.08855469 4.14578125 9.98960938 4.4140625 10.91796875 C4.60742188 11.60503906 4.80078125 12.29210937 5 13 C2.5625 11.9375 2.5625 11.9375 0 10 C-0.97333827 6.10664693 -1.27382218 3.82146654 0 0 Z " fill="#BFE0F4" transform="translate(67,82)"/>
<path d="M0 0 C-0.375 1.9375 -0.375 1.9375 -1 4 C-1.99 4.495 -1.99 4.495 -3 5 C-3 4.34 -3 3.68 -3 3 C-4.299375 3.4640625 -4.299375 3.4640625 -5.625 3.9375 C-8.76150738 4.92491899 -11.75067413 5.53581059 -15 6 C-12.9100302 3.9100302 -11.29998384 3.07474358 -8.625 1.875 C-7.85414063 1.52179687 -7.08328125 1.16859375 -6.2890625 0.8046875 C-4 0 -4 0 0 0 Z " fill="#7DE0DA" transform="translate(137,20)"/>
<path d="M0 0 C0.66 0.66 1.32 1.32 2 2 C2.66 1.67 3.32 1.34 4 1 C4 2.65 4 4.3 4 6 C3.01 6 2.02 6 1 6 C1 7.65 1 9.3 1 11 C0.34 11 -0.32 11 -1 11 C-1.125 3.375 -1.125 3.375 0 0 Z " fill="#E0F5FC" transform="translate(78,90)"/>
<path d="M0 0 C0.33 0 0.66 0 1 0 C1.05382106 2.62527189 1.09358313 5.24944713 1.125 7.875 C1.14175781 8.62136719 1.15851563 9.36773437 1.17578125 10.13671875 C1.1933959 12.09194461 1.10320189 14.04742021 1 16 C0.34 16.66 -0.32 17.32 -1 18 C-1 14.7 -1 11.4 -1 8 C-1.66 8 -2.32 8 -3 8 C-1.125 2.25 -1.125 2.25 0 0 Z " fill="#8DCA2F" transform="translate(134,65)"/>
<path d="M0 0 C0.66 0 1.32 0 2 0 C2.33 6.93 2.66 13.86 3 21 C0.67676677 17.51515015 0.65782764 15.69247137 0.4375 11.5625 C0.21226208 7.06436438 0.21226208 7.06436438 -0.58984375 2.65234375 C-0.72519531 2.10707031 -0.86054687 1.56179687 -1 1 C-0.67 0.67 -0.34 0.34 0 0 Z " fill="#BDE4F9" transform="translate(64,61)"/>
<path d="M0 0 C-2.19708121 2.19708121 -3.51773333 2.64677679 -6.4375 3.5625 C-7.21996094 3.81128906 -8.00242187 4.06007813 -8.80859375 4.31640625 C-9.89333984 4.65478516 -9.89333984 4.65478516 -11 5 C-11.99 5.33 -12.98 5.66 -14 6 C-13.67 4.68 -13.34 3.36 -13 2 C-8.46298506 0.54815522 -4.81938524 -0.23509196 0 0 Z " fill="#D5F5DC" transform="translate(114,70)"/>
<path d="M0 0 C-1.93694678 0.81381795 -3.87457711 1.62600916 -5.8125 2.4375 C-6.89144531 2.88996094 -7.97039062 3.34242187 -9.08203125 3.80859375 C-11.0295126 4.60375013 -13.00438943 5.33479648 -15 6 C-15 5.01 -15 4.02 -15 3 C-13.25531628 2.29911844 -11.50398839 1.61475991 -9.75 0.9375 C-8.77546875 0.55464844 -7.8009375 0.17179687 -6.796875 -0.22265625 C-3.95992605 -1.01113787 -2.70590448 -1.02437812 0 0 Z " fill="#399CAF" transform="translate(114,58)"/>
<path d="M0 0 C-2 2 -2 2 -5.0625 3 C-8.12150806 3.65752556 -8.12150806 3.65752556 -9 6 C-10.32 5.34 -11.64 4.68 -13 4 C-11.59248779 3.13083113 -10.1735479 2.28014851 -8.75 1.4375 C-7.96109375 0.96183594 -7.1721875 0.48617187 -6.359375 -0.00390625 C-3.69155375 -1.13022151 -2.65498232 -1.0169313 0 0 Z " fill="#49B3C5" transform="translate(95,39)"/>
<path d="M0 0 C0.99 0 1.98 0 3 0 C3.33 0.99 3.66 1.98 4 3 C0.25 6 0.25 6 -2 6 C-2 6.66 -2 7.32 -2 8 C-2.66 8 -3.32 8 -4 8 C-2.25 2.25 -2.25 2.25 0 0 Z " fill="#32B0C5" transform="translate(97,47)"/>
<path d="M0 0 C0.33 0 0.66 0 1 0 C1.12375 1.010625 1.2475 2.02125 1.375 3.0625 C1.98085335 6.87937612 2.87193912 10.31500112 4 14 C3.34 14 2.68 14 2 14 C1.27273948 12.4252706 0.56879578 10.83975721 -0.125 9.25 C-0.51945312 8.36828125 -0.91390625 7.4865625 -1.3203125 6.578125 C-2 4 -2 4 -1.1171875 1.671875 C-0.74851562 1.12015625 -0.37984375 0.5684375 0 0 Z " fill="#99C63D" transform="translate(86,121)"/>
<path d="M0 0 C0 1.65 0 3.3 0 5 C-1.32 5 -2.64 5 -4 5 C-4.99 6.485 -4.99 6.485 -6 8 C-6.66 8 -7.32 8 -8 8 C-6.65580512 3.85539913 -4.87800266 0 0 0 Z " fill="#6FC524" transform="translate(95,113)"/>
<path d="M0 0 C1.32 0.33 2.64 0.66 4 1 C3.00233891 3.49415272 2.31383315 4.78740335 0.0625 6.3125 C-2 7 -2 7 -5 6 C-3.35 4.02 -1.7 2.04 0 0 Z " fill="#4D9817" transform="translate(102,104)"/>
<path d="M0 0 C0.99 0.66 1.98 1.32 3 2 C2 4 2 4 -1 6 C-2.32 6 -3.64 6 -5 6 C-3.63016497 2.83884224 -3.0109362 2.0072908 0 0 Z " fill="#E5EEFB" transform="translate(131,52)"/>
<path d="M0 0 C0 0.99 0 1.98 0 3 C-1.32 3 -2.64 3 -4 3 C-4.33 4.32 -4.66 5.64 -5 7 C-5.12375 6.360625 -5.2475 5.72125 -5.375 5.0625 C-5.684375 4.0415625 -5.684375 4.0415625 -6 3 C-6.66 2.67 -7.32 2.34 -8 2 C-4.77208445 -0.1519437 -3.71599191 -0.20086443 0 0 Z " fill="#49E5DA" transform="translate(134,23)"/>
<path d="M0 0 C0.33 0 0.66 0 1 0 C1.05391993 1.79133978 1.09275571 3.58313899 1.125 5.375 C1.14820312 6.37273437 1.17140625 7.37046875 1.1953125 8.3984375 C1 11 1 11 -1 13 C-1.22245393 11.39773045 -1.42746669 9.79303233 -1.625 8.1875 C-1.74101563 7.29417969 -1.85703125 6.40085937 -1.9765625 5.48046875 C-2 3 -2 3 0 0 Z " fill="#0F8B5E" transform="translate(85,112)"/>
<path d="M0 0 C0 3 0 3 -2.375 5.5625 C-3.24125 6.366875 -4.1075 7.17125 -5 8 C-5.66 8.66 -6.32 9.32 -7 10 C-7.99 9.67 -8.98 9.34 -10 9 C-6.83047153 5.73991357 -3.60062011 2.77762123 0 0 Z " fill="#B7E6F6" transform="translate(94,67)"/>
<path d="M0 0 C2.5654594 2.5654594 2.54046087 4.47686668 3 8 C2.01 8 1.02 8 0 8 C-1.0625 6.1875 -1.0625 6.1875 -2 4 C-1 1 -1 1 0 0 Z " fill="#89B116" transform="translate(98,118)"/>
<path d="M0 0 C0.33 0.66 0.66 1.32 1 2 C-0.20850753 5.07620099 -1.52221785 8.0444357 -3 11 C-3.66 11 -4.32 11 -5 11 C-4.32902328 6.80639551 -2.1441606 3.59665648 0 0 Z " fill="#57AE81" transform="translate(86,88)"/>
<path d="M0 0 C0.66 0.33 1.32 0.66 2 1 C0.7391988 2.03319813 -0.53403258 3.05124379 -1.8125 4.0625 C-2.87404297 4.91521484 -2.87404297 4.91521484 -3.95703125 5.78515625 C-4.63121094 6.18605469 -5.30539063 6.58695312 -6 7 C-6.99 6.67 -7.98 6.34 -9 6 C-8.01 5.67 -7.02 5.34 -6 5 C-6 4.34 -6 3.68 -6 3 C-4.03533587 1.93224776 -2.03144641 0.93446535 0 0 Z " fill="#70B453" transform="translate(127,89)"/>
<path d="M0 0 C1.11375 0.3403125 1.11375 0.3403125 2.25 0.6875 C0.25 3.6875 0.25 3.6875 -2.875 4.375 C-3.82375 4.478125 -4.7725 4.58125 -5.75 4.6875 C-6.08 4.0275 -6.41 3.3675 -6.75 2.6875 C-4.29511132 0.41445492 -3.41240272 -0.38777304 0 0 Z " fill="#1998AD" transform="translate(101.75,50.3125)"/>
<path d="M0 0 C0.99 0.495 0.99 0.495 2 1 C2 1.66 2 2.32 2 3 C4.64 3 7.28 3 10 3 C8.3125 4.5625 8.3125 4.5625 6 6 C3.25 5.6875 3.25 5.6875 1 5 C0.67 3.35 0.34 1.7 0 0 Z " fill="#E8E178" transform="translate(92,144)"/>
<path d="M0 0 C0.33 0 0.66 0 1 0 C1.3125 2.25 1.3125 2.25 1 5 C-1.5 7.3125 -1.5 7.3125 -4 9 C-2.25 2.25 -2.25 2.25 0 0 Z " fill="#C2E8F7" transform="translate(83,78)"/>
<path d="M0 0 C-1.28524261 0.86380259 -2.57842419 1.71580369 -3.875 2.5625 C-4.59429687 3.03816406 -5.31359375 3.51382813 -6.0546875 4.00390625 C-6.69664063 4.33261719 -7.33859375 4.66132812 -8 5 C-8.66 4.67 -9.32 4.34 -10 4 C-10 3.34 -10 2.68 -10 2 C-3.375 -1.125 -3.375 -1.125 0 0 Z " fill="#63A95B" transform="translate(118,97)"/>
<path d="M0 0 C0.33 0 0.66 0 1 0 C1.28571429 8.57142857 1.28571429 8.57142857 -1 12 C-1.66 12 -2.32 12 -3 12 C-2.01 8.04 -1.02 4.08 0 0 Z " fill="#DBF9CE" transform="translate(136,73)"/>
<path d="M0 0 C1.65 0 3.3 0 5 0 C2.42215154 2.64752004 0.08351902 4.94432065 -3 7 C-3 4 -3 4 -1.5 2.375 C-1.005 1.92125 -0.51 1.4675 0 1 C0 0.67 0 0.34 0 0 Z " fill="#308EA9" transform="translate(90,66)"/>
<path d="M0 0 C0 0.66 0 1.32 0 2 C-6.45 6.09326923 -6.45 6.09326923 -9.234375 5.62109375 C-9.81703125 5.41613281 -10.3996875 5.21117188 -11 5 C-9.54462432 4.16151196 -8.08559627 3.32936066 -6.625 2.5 C-5.81289062 2.0359375 -5.00078125 1.571875 -4.1640625 1.09375 C-2 0 -2 0 0 0 Z " fill="#ADE1F1" transform="translate(106,61)"/>
<path d="M0 0 C-2.97 1.65 -5.94 3.3 -9 5 C-9 4.34 -9 3.68 -9 3 C-9.66 2.67 -10.32 2.34 -11 2 C-9.54494642 1.47007308 -8.08581873 0.9513211 -6.625 0.4375 C-5.81289062 0.14746094 -5.00078125 -0.14257812 -4.1640625 -0.44140625 C-2 -1 -2 -1 0 0 Z " fill="#47C3D5" transform="translate(109,44)"/>
<path d="M0 0 C-3.83325617 2.70582788 -6.32538149 3.32613618 -11 3 C-10 1 -10 1 -7.1875 -0.1875 C-4.14038924 -0.96421451 -2.86250637 -1.10096399 0 0 Z " fill="#5FC4CA" transform="translate(104,35)"/>
<path d="M0 0 C0.33 0 0.66 0 1 0 C1.20086443 3.71599191 1.1519437 4.77208445 -1 8 C-3.625 8.6875 -3.625 8.6875 -6 9 C-5.071875 7.88625 -5.071875 7.88625 -4.125 6.75 C-2.39562719 4.51198812 -1.13893339 2.56260013 0 0 Z " fill="#F6F6C3" transform="translate(110,137)"/>
<path d="M0 0 C0.99 0.33 1.98 0.66 3 1 C3 2.65 3 4.3 3 6 C2.01 6 1.02 6 0 6 C-0.66 4.68 -1.32 3.36 -2 2 C-1.34 2 -0.68 2 0 2 C0 1.34 0 0.68 0 0 Z " fill="#BDC123" transform="translate(104,132)"/>
<path d="M0 0 C1.32 0.33 2.64 0.66 4 1 C3.38125 1.2475 2.7625 1.495 2.125 1.75 C-0.35068687 3.20628639 -0.95125002 4.37812506 -2 7 C-2.33 6.01 -2.66 5.02 -3 4 C-1.5625 1.8125 -1.5625 1.8125 0 0 Z " fill="#2D993F" transform="translate(96,105)"/>
<path d="M0 0 C0.33 1.32 0.66 2.64 1 4 C0.34 4 -0.32 4 -1 4 C-1 4.66 -1 5.32 -1 6 C-2.32 6.33 -3.64 6.66 -5 7 C-5 6.01 -5 5.02 -5 4 C-2.5 1.8125 -2.5 1.8125 0 0 Z " fill="#7BC529" transform="translate(129,74)"/>
<path d="M0 0 C0.66 0 1.32 0 2 0 C0.50902342 3.7952131 -1.75700849 5.61042731 -5 8 C-5.66 7.67 -6.32 7.34 -7 7 C-5.47005208 5.76302083 -3.94010417 4.52604167 -2.41015625 3.2890625 C-0.86733563 2.0333609 -0.86733563 2.0333609 0 0 Z " fill="#AAEB5A" transform="translate(128,72)"/>
<path d="M0 0 C0.66 0.33 1.32 0.66 2 1 C0.35 2.65 -1.3 4.3 -3 6 C-3.99 5.67 -4.98 5.34 -6 5 C-4.02 3.35 -2.04 1.7 0 0 Z " fill="#43A5BE" transform="translate(80,44)"/>
<path d="M0 0 C2.95183101 2.95183101 3.08663988 5.95511947 4 10 C3.01 9.67 2.02 9.34 1 9 C0.67 6.03 0.34 3.06 0 0 Z " fill="#EDF6C2" transform="translate(86,130)"/>
</svg>
