<?xml version="1.0" encoding="UTF-8"?>
<svg version="1.1" xmlns="http://www.w3.org/2000/svg" width="59" height="69">
<path d="M0 0 C0 0.33 0 0.66 0 1 C-1.65 1 -3.3 1 -5 1 C-5 3.31 -5 5.62 -5 8 C-2.53199953 6.84826645 -0.95216435 5.95216435 1 4 C3.5625 3.8125 3.5625 3.8125 6 4 C7.57922406 5.57922406 7.207659 7.19443874 7.25 9.375 C7.27578125 10.16648437 7.3015625 10.95796875 7.328125 11.7734375 C7 14 7 14 5.5078125 15.47265625 C3.77230609 16.93682735 3.77230609 16.93682735 3.6015625 19.41015625 C3.61316406 20.72306641 3.61316406 20.72306641 3.625 22.0625 C3.61726563 22.94035156 3.60953125 23.81820313 3.6015625 24.72265625 C3.73304687 25.47417969 3.86453125 26.22570312 4 27 C4.99 27.66 5.98 28.32 7 29 C7.27937074 31.68368129 7.3721651 34.13364191 7.328125 36.81640625 C7.32625183 37.58806625 7.32437866 38.35972626 7.32244873 39.1547699 C7.31572316 40.78641071 7.30179858 42.41803527 7.28125 44.04956055 C7.2500811 46.55597804 7.24027923 49.06176727 7.234375 51.56835938 C7.22520585 53.15104939 7.21483035 54.73373296 7.203125 56.31640625 C7.19675018 57.44762657 7.19675018 57.44762657 7.19024658 58.60169983 C7.11715647 63.88284353 7.11715647 63.88284353 6 65 C4.30858344 64.91036938 2.62040398 64.75422324 0.9375 64.5625 C0.01839844 64.46066406 -0.90070312 64.35882813 -1.84765625 64.25390625 C-2.91306641 64.12822266 -2.91306641 64.12822266 -4 64 C-4 63.34 -4 62.68 -4 62 C-3.34 62 -2.68 62 -2 62 C-2.04125 60.824375 -2.0825 59.64875 -2.125 58.4375 C-2.22647278 55.54552571 -1.86295293 53.53580831 -1.03125 50.71875 C0.06679354 46.75913843 0.4074252 43.16015876 0.625 39.0625 C0.66367187 38.37865234 0.70234375 37.69480469 0.7421875 36.99023438 C0.83522412 35.32720487 0.91863787 33.66364153 1 32 C-1.16605966 31.78579591 -1.16605966 31.78579591 -2.9375 33.625 C-5.16659064 35.96210637 -5.16659064 35.96210637 -6.4375 39.1875 C-6.953125 40.115625 -7.46875 41.04375 -8 42 C-10.475 42.495 -10.475 42.495 -13 43 C-13.66 48.61 -14.32 54.22 -15 60 C-13.68 60 -12.36 60 -11 60 C-11.01160156 59.24074219 -11.02320313 58.48148438 -11.03515625 57.69921875 C-11.04417969 56.70535156 -11.05320313 55.71148437 -11.0625 54.6875 C-11.07410156 53.70136719 -11.08570313 52.71523438 -11.09765625 51.69921875 C-11 49 -11 49 -10 46 C-9.01 46.33 -8.02 46.66 -7 47 C-7.495 47.99 -7.495 47.99 -8 49 C-8.07115097 50.97799703 -8.08409082 52.95834145 -8.0625 54.9375 C-8.05347656 55.99839844 -8.04445312 57.05929688 -8.03515625 58.15234375 C-8.02355469 59.09207031 -8.01195312 60.03179687 -8 61 C-8 61.99 -8 62.98 -8 64 C-11.27891925 65.63945963 -14.90613534 65.12030178 -18.5078125 65.09765625 C-19.76874222 65.09553383 -19.76874222 65.09553383 -21.05514526 65.09336853 C-23.74513275 65.08776237 -26.43503759 65.07520886 -29.125 65.0625 C-30.94661338 65.05748579 -32.76822807 65.05292275 -34.58984375 65.04882812 C-39.05992777 65.03779094 -43.52994986 65.0205222 -48 65 C-51.84973551 59.32863359 -52.55740297 55.34267651 -52.390625 48.56640625 C-52.38496521 47.68846909 -52.37930542 46.81053192 -52.37347412 45.9059906 C-52.35122853 43.1242532 -52.30105591 40.34384268 -52.25 37.5625 C-52.22991965 35.66733642 -52.21167158 33.77215248 -52.1953125 31.87695312 C-52.1514027 27.25079716 -52.08245882 22.62562291 -52 18 C-50.68 18 -49.36 18 -48 18 C-48.33 17.34 -48.66 16.68 -49 16 C-49.99 15.67 -50.98 15.34 -52 15 C-51.78125 13.12890625 -51.78125 13.12890625 -51 11 C-49.03125 9.83984375 -49.03125 9.83984375 -46.5 8.9375 C-45.59636719 8.6075 -44.69273438 8.2775 -43.76171875 7.9375 C-40.54870917 6.84680368 -37.33512783 5.76271733 -34.1015625 4.734375 C-32.04329747 4.01512997 -30.14737809 3.13824937 -28.1875 2.1875 C-25 1 -25 1 -22.5625 1.8125 C-22.046875 2.204375 -21.53125 2.59625 -21 3 C-21 3.66 -21 4.32 -21 5 C-19.02463255 4.65213292 -19.02463255 4.65213292 -17 4 C-15.7763932 1.9254644 -15.7763932 1.9254644 -16 -1 C-10.84587819 -2.7180406 -4.64196196 -3.09464131 0 0 Z M-38 11 C-38 11.99 -38 12.98 -38 14 C-37.34 13.01 -36.68 12.02 -36 11 C-36.66 11 -37.32 11 -38 11 Z M-41 14 C-41 14.66 -41 15.32 -41 16 C-42.98 16.99 -42.98 16.99 -45 18 C-45 19.32 -45 20.64 -45 22 C-44.01 21.67 -43.02 21.34 -42 21 C-40.28432339 17.49705129 -40.28432339 17.49705129 -39 14 C-39.66 14 -40.32 14 -41 14 Z " fill="#FDFEFE" transform="translate(52,4)"/>
<path d="M0 0 C0.66 0.33 1.32 0.66 2 1 C2.56797421 4.06074992 2.89563924 7.12171617 3.2421875 10.21484375 C3.49226562 11.13394531 3.74234375 12.05304687 4 13 C4.63147949 13.29769287 5.26295898 13.59538574 5.91357422 13.90209961 C8.61266623 15.32239177 9.02055653 16.55139134 10.140625 19.3515625 C10.48867188 20.20234375 10.83671875 21.053125 11.1953125 21.9296875 C11.54335938 22.81914063 11.89140625 23.70859375 12.25 24.625 C12.61351563 25.5221875 12.97703125 26.419375 13.3515625 27.34375 C14.24664759 29.55790786 15.12880417 31.77635825 16 34 C19.21191276 32.45975378 20.72873456 31.63974203 22.14453125 28.30078125 C22.36496094 27.31464844 22.58539062 26.32851563 22.8125 25.3125 C23.04582031 24.31863281 23.27914062 23.32476562 23.51953125 22.30078125 C23.75736328 21.16189453 23.75736328 21.16189453 24 20 C23.34 19.67 22.68 19.34 22 19 C26.75 16 26.75 16 29 16 C28.67 21.61 28.34 27.22 28 33 C29.32 33 30.64 33 32 33 C31.98839844 32.24074219 31.97679687 31.48148438 31.96484375 30.69921875 C31.95582031 29.70535156 31.94679687 28.71148437 31.9375 27.6875 C31.92589844 26.70136719 31.91429687 25.71523438 31.90234375 24.69921875 C32 22 32 22 33 19 C33.99 19.33 34.98 19.66 36 20 C35.67 20.66 35.34 21.32 35 22 C34.92884903 23.97799703 34.91590918 25.95834145 34.9375 27.9375 C34.94652344 28.99839844 34.95554688 30.05929688 34.96484375 31.15234375 C34.97644531 32.09207031 34.98804688 33.03179687 35 34 C35 34.99 35 35.98 35 37 C31.72108075 38.63945963 28.09386466 38.12030178 24.4921875 38.09765625 C23.23125778 38.09553383 23.23125778 38.09553383 21.94485474 38.09336853 C19.25486725 38.08776237 16.56496241 38.07520886 13.875 38.0625 C12.05338662 38.05748579 10.23177193 38.05292275 8.41015625 38.04882812 C3.94007223 38.03779094 -0.52994986 38.0205222 -5 38 C-8.18861582 33.05985213 -9.49762455 29.99138069 -9.390625 23.97265625 C-9.37773437 22.68681641 -9.36484375 21.40097656 -9.3515625 20.07617188 C-9.31815181 18.7382701 -9.28429216 17.40037947 -9.25 16.0625 C-9.22990673 14.69729179 -9.21166094 13.33205507 -9.1953125 11.96679688 C-9.14834433 8.64379866 -9.08266726 5.32227008 -9 2 C-6.525 2.99 -6.525 2.99 -4 4 C-3.67 6.31 -3.34 8.62 -3 11 C-1.68 11.33 -0.36 11.66 1 12 C0.855625 10.72125 0.71125 9.4425 0.5625 8.125 C0.44068359 7.04605469 0.44068359 7.04605469 0.31640625 5.9453125 C0.08707039 3.92595684 0.08707039 3.92595684 -1 2 C-0.67 1.34 -0.34 0.68 0 0 Z " fill="#FBFDFC" transform="translate(9,31)"/>
<path d="M0 0 C0.61714286 7.86857143 0.61714286 7.86857143 -1.5 11.75 C-4.25578842 14.23020958 -7.10125759 16.11316772 -10.29296875 17.984375 C-11.96847198 18.88642761 -11.96847198 18.88642761 -13 20 C-13.22111261 22.72705554 -13.30361625 24.46420662 -11.9375 26.875 C-10.46137963 30.22087283 -11.07048714 32.52981864 -12 36 C-14.5625 38.4375 -14.5625 38.4375 -17 40 C-21.60731418 37.69634291 -23.34382451 29.72615932 -25 25 C-25.92195565 20.28175638 -25.5353225 17.18701945 -23.5625 12.8125 C-18.79672076 7.58176669 -13.28279368 3.3734766 -6 3 C-6 2.34 -6 1.68 -6 1 C-3 0 -3 0 0 0 Z " fill="#44A538" transform="translate(43,26)"/>
<path d="M0 0 C0.48748776 7.19044449 0.48748776 7.19044449 -1.51953125 10.5234375 C-5.16988283 14.16804049 -9.39515532 15.82129184 -14.06835938 17.87304688 C-19.67871749 20.47579033 -23.55841346 23.3625791 -25.92578125 29.3359375 C-26.05339844 30.00882813 -26.18101563 30.68171875 -26.3125 31.375 C-26.539375 32.57125 -26.76625 33.7675 -27 35 C-27.66 35 -28.32 35 -29 35 C-31.29338351 29.22558795 -33.38340728 23.2416722 -32 17 C-29.11230271 11.35653067 -25.7208984 9.33139696 -20.1875 6.8125 C-19.50107422 6.48314453 -18.81464844 6.15378906 -18.10742188 5.81445312 C-16.08227788 4.85073749 -14.04541819 3.91980203 -12 3 C-11.35039307 2.70359619 -10.70078613 2.40719238 -10.03149414 2.10180664 C-6.50152986 0.52938065 -3.88995462 -0.35363224 0 0 Z " fill="#18A4B4" transform="translate(44,8)"/>
<path d="M0 0 C0 0.33 0 0.66 0 1 C-1.65 1 -3.3 1 -5 1 C-5.66 3.97 -6.32 6.94 -7 10 C-7.33 10 -7.66 10 -8 10 C-8 8.02 -8 6.04 -8 4 C-14.58911555 5.55418942 -20.72402963 8.03349855 -26.875 10.8125 C-27.61226318 11.13154297 -28.34952637 11.45058594 -29.10913086 11.77929688 C-33.97487669 14.03813459 -36.29317773 16.20748617 -39 21 C-43.22992586 25.22992586 -46.26220945 26.1966944 -52 28 C-52 24.7 -52 21.4 -52 18 C-50.68 18 -49.36 18 -48 18 C-48.33 17.34 -48.66 16.68 -49 16 C-49.99 15.67 -50.98 15.34 -52 15 C-51.78125 13.12890625 -51.78125 13.12890625 -51 11 C-49.03125 9.83984375 -49.03125 9.83984375 -46.5 8.9375 C-45.59636719 8.6075 -44.69273438 8.2775 -43.76171875 7.9375 C-40.54870917 6.84680368 -37.33512783 5.76271733 -34.1015625 4.734375 C-32.04329747 4.01512997 -30.14737809 3.13824937 -28.1875 2.1875 C-25 1 -25 1 -22.5625 1.8125 C-22.046875 2.204375 -21.53125 2.59625 -21 3 C-21 3.66 -21 4.32 -21 5 C-19.02463255 4.65213292 -19.02463255 4.65213292 -17 4 C-15.7763932 1.9254644 -15.7763932 1.9254644 -16 -1 C-10.84587819 -2.7180406 -4.64196196 -3.09464131 0 0 Z M-38 11 C-38 11.99 -38 12.98 -38 14 C-37.34 13.01 -36.68 12.02 -36 11 C-36.66 11 -37.32 11 -38 11 Z M-41 14 C-41 14.66 -41 15.32 -41 16 C-42.98 16.99 -42.98 16.99 -45 18 C-45 19.32 -45 20.64 -45 22 C-44.01 21.67 -43.02 21.34 -42 21 C-40.28432339 17.49705129 -40.28432339 17.49705129 -39 14 C-39.66 14 -40.32 14 -41 14 Z " fill="#FCFEFE" transform="translate(52,4)"/>
<path d="M0 0 C2.24252893 4.48505786 2.09665978 9.07035139 2 14 C1.67 14 1.34 14 1 14 C1 12.02 1 10.04 1 8 C-0.98 8.33 -2.96 8.66 -5 9 C-5 9.66 -5 10.32 -5 11 C-5.65226562 11.23074219 -6.30453125 11.46148437 -6.9765625 11.69921875 C-13.22386353 14.03043875 -18.37396746 16.24852494 -22.3125 21.875 C-23.28257226 24.87340518 -23.63963544 27.87684051 -24 31 C-29.86128352 26.56443409 -30.62965118 20.98543666 -32 14 C-32.11168808 17.02559518 -32.11168808 17.02559518 -31.3125 20 C-31 23 -31 23 -32.4375 24.875 C-32.953125 25.24625 -33.46875 25.6175 -34 26 C-34.99 25.34 -35.98 24.68 -37 24 C-37.144375 23.05125 -37.28875 22.1025 -37.4375 21.125 C-38.09477204 17.47348869 -39.21041051 16.3396557 -42 14 C-41.46890625 13.74605469 -40.9378125 13.49210937 -40.390625 13.23046875 C-39.68421875 12.88628906 -38.9778125 12.54210938 -38.25 12.1875 C-37.55390625 11.85105469 -36.8578125 11.51460937 -36.140625 11.16796875 C-33.9190826 9.95584981 -31.987283 8.56207606 -30 7 C-29.86722656 7.88042969 -29.73445313 8.76085938 -29.59765625 9.66796875 C-29.42105469 10.82941406 -29.24445312 11.99085937 -29.0625 13.1875 C-28.88847656 14.33605469 -28.71445312 15.48460937 -28.53515625 16.66796875 C-28.08620687 19.46325212 -27.57917838 22.22933586 -27 25 C-26.34 25 -25.68 25 -25 25 C-25.12375 23.700625 -25.12375 23.700625 -25.25 22.375 C-24.88827242 17.49167762 -22.95149576 14.8013807 -19.375 11.5 C-14.47900408 7.58320327 -9.08349921 4.88962853 -3.44140625 2.19921875 C-1.10900126 1.21664194 -1.10900126 1.21664194 0 0 Z " fill="#CDE8F1" transform="translate(42,18)"/>
<path d="M0 0 C0 0.99 0 1.98 0 3 C-1.69139999 4.40876396 -3.49518089 5.4728077 -5.37109375 6.62109375 C-7.37356915 8.3162348 -7.5139244 9.47752345 -8 12 C-8.495 12.45375 -8.99 12.9075 -9.5 13.375 C-11.66846658 15.72417213 -11.5845322 17.85431522 -12 21 C-12.61822676 23.68059258 -13.31110953 26.33629018 -14 29 C-14.66 29 -15.32 29 -16 29 C-18.35782474 23.06333413 -20.11055784 17.42192144 -19 11 C-16.9949912 7.1973971 -15.57313738 5.38209159 -12 3 C-10.02734375 2.40234375 -10.02734375 2.40234375 -7.9375 1.9375 C-5.23023342 1.32748276 -2.71743572 0 0 0 Z " fill="#1C93BB" transform="translate(31,14)"/>
<path d="M0 0 C0.62477558 7.96588869 0.62477558 7.96588869 -1.8125 12 C-4 14 -4 14 -7 15 C-7 13.68 -7 12.36 -7 11 C-10.3 11.33 -13.6 11.66 -17 12 C-17 11.34 -17 10.68 -17 10 C-18.32 10.33 -19.64 10.66 -21 11 C-17.6261161 7.32842047 -14.64203381 4.87656686 -10 3 C-8.68 3 -7.36 3 -6 3 C-6 2.34 -6 1.68 -6 1 C-3 0 -3 0 0 0 Z " fill="#80D53A" transform="translate(43,26)"/>
<path d="M0 0 C2.23469013 5.56778729 3.87133973 10.03510462 2 16 C-0.5625 18.4375 -0.5625 18.4375 -3 20 C-6.20130126 18.39934937 -6.93682645 15.48073828 -8.3046875 12.2890625 C-9 10 -9 10 -8.375 7.125 C-3.76470588 0 -3.76470588 0 0 0 Z " fill="#C7D130" transform="translate(29,46)"/>
<path d="M0 0 C0 2.64 0 5.28 0 8 C-0.66 6.68 -1.32 5.36 -2 4 C-2.88042969 4.55429688 -3.76085937 5.10859375 -4.66796875 5.6796875 C-5.84101486 6.41166827 -7.0141993 7.14342739 -8.1875 7.875 C-8.76564453 8.23980469 -9.34378906 8.60460938 -9.93945312 8.98046875 C-13.20278033 11.0085252 -16.38059362 12.70492051 -20 14 C-18.37660195 12.29115995 -16.70680947 10.62553283 -15 9 C-14.34 9 -13.68 9 -13 9 C-13 8.01 -13 7.02 -13 6 C-14.36125 6.7734375 -14.36125 6.7734375 -15.75 7.5625 C-19.16419665 9.07262544 -19.68604014 9.08784335 -23 8 C-20.11109425 6.65127604 -17.21288116 5.32384398 -14.3125 4 C-13.49587891 3.6184375 -12.67925781 3.236875 -11.83789062 2.84375 C-11.04189453 2.4828125 -10.24589844 2.121875 -9.42578125 1.75 C-8.69786377 1.41484375 -7.96994629 1.0796875 -7.2199707 0.734375 C-4.70453474 -0.09774106 -2.63253301 -0.12950201 0 0 Z " fill="#4ECFD6" transform="translate(44,8)"/>
<path d="M0 0 C4.51228935 3.99659914 7.56518979 8.46728233 10 14 C10 14.99 10 15.98 10 17 C8.02 17 6.04 17 4 17 C-0.0333905 11.20200116 -0.50604984 6.98629919 0 0 Z " fill="#DDDEDE" transform="translate(0,52)"/>
<path d="M0 0 C0.66 0.33 1.32 0.66 2 1 C1.79375 1.680625 1.5875 2.36125 1.375 3.0625 C0.89936171 6.78833331 1.82330851 9.46992554 3 13 C2.01 13.99 1.02 14.98 0 16 C-0.99 15.34 -1.98 14.68 -3 14 C-3.144375 13.05125 -3.28875 12.1025 -3.4375 11.125 C-4.09477204 7.47348869 -5.21041051 6.3396557 -8 4 C-6.71349294 3.30289269 -5.42059335 2.61757124 -4.125 1.9375 C-3.40570312 1.55464844 -2.68640625 1.17179687 -1.9453125 0.77734375 C-1.30335938 0.52082031 -0.66140625 0.26429687 0 0 Z " fill="#BCFFFF" transform="translate(8,28)"/>
<path d="M0 0 C0.66 3.63 1.32 7.26 2 11 C-5.50769231 11.36923077 -5.50769231 11.36923077 -8 9.5 C-8.33 9.005 -8.66 8.51 -9 8 C-4.13043478 0 -4.13043478 0 0 0 Z " fill="#93C113" transform="translate(29,46)"/>
<path d="M0 0 C-0.33 1.32 -0.66 2.64 -1 4 C1.97 4.495 1.97 4.495 5 5 C5 5.33 5 5.66 5 6 C4.30132812 6.14695312 3.60265625 6.29390625 2.8828125 6.4453125 C0.12149286 7.12586437 -2.40636635 7.82771194 -5 9 C-6.76097486 12.01773585 -6.76097486 12.01773585 -7 15 C-8.88658269 12.87759447 -9.91956289 11.34856081 -10.5625 8.5625 C-9.699172 4.62956132 -7.17140427 3.28341107 -4 1 C-2 0 -2 0 0 0 Z " fill="#E9EFF4" transform="translate(39,40)"/>
<path d="M0 0 C0.375 2.0625 0.375 2.0625 0 5 C-2.31146347 8.32451227 -5.14425979 11.14425979 -8 14 C-9 13 -9 13 -9.09765625 11.15234375 C-9.06510417 9.1015625 -9.03255208 7.05078125 -9 5 C-8.01 5.33 -7.02 5.66 -6 6 C-5.731875 5.195625 -5.46375 4.39125 -5.1875 3.5625 C-4.795625 2.716875 -4.40375 1.87125 -4 1 C-1 0 -1 0 0 0 Z " fill="#2B9B4C" transform="translate(28,40)"/>
<path d="M0 0 C-0.66 1.98 -1.32 3.96 -2 6 C-3.65 6.33 -5.3 6.66 -7 7 C-7 6.34 -7 5.68 -7 5 C-9.31 5.33 -11.62 5.66 -14 6 C-10.93882432 3.37613513 -10.26826873 3 -6 3 C-6 2.34 -6 1.68 -6 1 C-3 0 -3 0 0 0 Z " fill="#9BE14D" transform="translate(43,26)"/>
<path d="M0 0 C2.63103188 2.63103188 3 3.7611093 3 7.5625 C2 11 2 11 -0.4375 13 C-1.7059375 13.495 -1.7059375 13.495 -3 14 C-3.66 13.67 -4.32 13.34 -5 13 C-4.54625 12.525625 -4.0925 12.05125 -3.625 11.5625 C-1.3298066 7.94315657 -0.75865335 4.1770561 0 0 Z " fill="#E6F3F4" transform="translate(44,26)"/>
<path d="M0 0 C0.66 1.65 1.32 3.3 2 5 C-0.31 5.33 -2.62 5.66 -5 6 C-5 5.34 -5 4.68 -5 4 C-6.32 4.33 -7.64 4.66 -9 5 C-4.5 0 -4.5 0 0 0 Z " fill="#6ECB56" transform="translate(31,32)"/>
<path d="M0 0 C2.29013653 3.4352048 2.17842973 4.985331 2 9 C1.01 9 0.02 9 -1 9 C-1.33 10.65 -1.66 12.3 -2 14 C-2.33 14 -2.66 14 -3 14 C-3.32374517 8.49633208 -3.53286034 4.56327794 0 0 Z " fill="#40AE7C" transform="translate(21,37)"/>
<path d="M0 0 C0 2.64 0 5.28 0 8 C-0.66 6.68 -1.32 5.36 -2 4 C-2.99 4.66 -3.98 5.32 -5 6 C-5.99 6 -6.98 6 -8 6 C-6.24081631 1.94034532 -4.71412298 0 0 0 Z " fill="#42D6D2" transform="translate(44,8)"/>
<path d="M0 0 C-0.375 1.9375 -0.375 1.9375 -1 4 C-3.70879335 5.35439668 -6.00933268 5.06501451 -9 5 C-9 4.01 -9 3.02 -9 2 C-5.62902617 0.50178941 -3.79557881 0 0 0 Z " fill="#E2E2E2" transform="translate(59,58)"/>
<path d="M0 0 C0.66 0.33 1.32 0.66 2 1 C1.67 1.33 1.34 1.66 1 2 C1.99 2.33 2.98 2.66 4 3 C3.67 3.99 3.34 4.98 3 6 C0.36 6 -2.28 6 -5 6 C-4.34 5.67 -3.68 5.34 -3 5 C-2.835 4.34 -2.67 3.68 -2.5 3 C-2.335 2.34 -2.17 1.68 -2 1 C-1.34 0.67 -0.68 0.34 0 0 Z " fill="#ECFDFE" transform="translate(41,39)"/>
<path d="M0 0 C0.99 0 1.98 0 3 0 C2.34 3.96 1.68 7.92 1 12 C-1.0625 9.75 -1.0625 9.75 -3 7 C-2.75 4.6875 -2.75 4.6875 -2 3 C-2 3.99 -2 4.98 -2 6 C-1.34 6 -0.68 6 0 6 C0 4.02 0 2.04 0 0 Z " fill="#C2DDEC" transform="translate(17,37)"/>
<path d="M0 0 C-0.25 1.875 -0.25 1.875 -1 4 C-3.0625 5.25 -3.0625 5.25 -5 6 C-5 4.68 -5 3.36 -5 2 C-5.99 1.67 -6.98 1.34 -8 1 C-4.93251126 -0.86240388 -3.40254489 -1.2151946 0 0 Z " fill="#6BBF2B" transform="translate(41,35)"/>
<path d="M0 0 C1.4540625 0.0309375 1.4540625 0.0309375 2.9375 0.0625 C2.6075 1.7125 2.2775 3.3625 1.9375 5.0625 C0.9475 5.3925 -0.0425 5.7225 -1.0625 6.0625 C-1.0625 4.7425 -1.0625 3.4225 -1.0625 2.0625 C-2.0525 1.7325 -3.0425 1.4025 -4.0625 1.0625 C-3.0625 0.0625 -3.0625 0.0625 0 0 Z " fill="#55B335" transform="translate(33.0625,36.9375)"/>
<path d="M0 0 C0 0.66 0 1.32 0 2 C0.99 2.33 1.98 2.66 3 3 C2.34 3 1.68 3 1 3 C1 3.66 1 4.32 1 5 C-0.32 5.33 -1.64 5.66 -3 6 C-3 5.34 -3 4.68 -3 4 C-3.66 3.67 -4.32 3.34 -5 3 C-2.25 0 -2.25 0 0 0 Z " fill="#46B657" transform="translate(26,36)"/>
<path d="M0 0 C2.33524782 2.25740623 4.18705073 4.2805761 6 7 C6 7.99 6 8.98 6 10 C3 9 3 9 1.3125 6.125 C0 3 0 3 0 0 Z " fill="#FFFFFF" transform="translate(0,59)"/>
<path d="M0 0 C0 1.98 0 3.96 0 6 C-1.32 6 -2.64 6 -4 6 C-4 5.34 -4 4.68 -4 4 C-4.66 3.67 -5.32 3.34 -6 3 C-1.125 0 -1.125 0 0 0 Z " fill="#67A70D" transform="translate(29,46)"/>
<path d="M0 0 C-0.66 1.98 -1.32 3.96 -2 6 C-2.66 6 -3.32 6 -4 6 C-4 5.01 -4 4.02 -4 3 C-4.66 3 -5.32 3 -6 3 C-6 2.34 -6 1.68 -6 1 C-3 0 -3 0 0 0 Z " fill="#AEE950" transform="translate(43,26)"/>
<path d="M0 0 C1.5625 1.125 1.5625 1.125 3 3 C2.6875 6.1875 2.6875 6.1875 2 9 C1.34 8.67 0.68 8.34 0 8 C0 5.36 0 2.72 0 0 Z " fill="#15956D" transform="translate(19,45)"/>
<path d="M0 0 C1.32 1.32 2.64 2.64 4 4 C3.67 4.99 3.34 5.98 3 7 C2.01 7.33 1.02 7.66 0 8 C0 5.36 0 2.72 0 0 Z " fill="#CEFFFF" transform="translate(7,36)"/>
<path d="M0 0 C-1.52708963 3.43595166 -3.59927045 6.11912454 -6 9 C-6.25 6.75 -6.25 6.75 -6 4 C-2.75675676 0 -2.75675676 0 0 0 Z " fill="#CAE2C6" transform="translate(35,42)"/>
<path d="M0 0 C-1.125 1.5 -1.125 1.5 -3 3 C-6.1875 3.1875 -6.1875 3.1875 -9 3 C-6.38997624 -0.48003168 -4.1689578 -0.27793052 0 0 Z " fill="#DDDDDD" transform="translate(45,66)"/>
<path d="M0 0 C0.33 0 0.66 0 1 0 C1.125 3.375 1.125 3.375 1 7 C0.34 7.66 -0.32 8.32 -1 9 C-2.1875 7.3125 -2.1875 7.3125 -3 5 C-1.6875 2.25 -1.6875 2.25 0 0 Z " fill="#83CD1E" transform="translate(42,28)"/>
</svg>
