<?xml version="1.0" encoding="UTF-8"?>
<svg version="1.1" xmlns="http://www.w3.org/2000/svg" width="1200" height="729">
<path d="M0 0 C396 0 792 0 1200 0 C1200 240.57 1200 481.14 1200 729 C804 729 408 729 0 729 C0 488.43 0 247.86 0 0 Z " fill="#FEFEFE" transform="translate(0,0)"/>
<path d="M0 0 C1.74243348 -0.00417485 3.48486424 -0.0096532 5.22728997 -0.01631981 C10.00703722 -0.03077372 14.78661202 -0.0265298 19.5663687 -0.019153 C24.72468727 -0.0144234 29.88296843 -0.02692949 35.04127502 -0.03717041 C45.14453025 -0.054369 55.2477233 -0.05519605 65.35098936 -0.04995751 C73.56484357 -0.04591581 81.7786794 -0.04735938 89.99253273 -0.05270576 C91.16167322 -0.05345419 92.3308137 -0.05420261 93.53538269 -0.05497371 C95.91054692 -0.0565052 98.28571114 -0.05804355 100.66087536 -0.05958868 C122.9374657 -0.07331808 145.21402092 -0.0678734 167.49061046 -0.05640347 C187.8606126 -0.04647522 208.23052386 -0.05940395 228.60051199 -0.08333766 C249.52301709 -0.107735 270.44547986 -0.11733467 291.3679989 -0.11068493 C303.1116537 -0.10719354 314.85523864 -0.1094193 326.59888268 -0.12693596 C336.59834091 -0.14166604 346.59768012 -0.142283 356.59713604 -0.12486505 C361.69647268 -0.11635853 366.79559676 -0.114197 371.89492226 -0.1295166 C376.56897377 -0.14338434 381.24263104 -0.13857365 385.91665987 -0.11927737 C387.60170032 -0.11552338 389.2867725 -0.11842186 390.97178461 -0.12888902 C405.88143352 -0.21487269 417.94199092 1.70793372 429.06672668 12.38768005 C429.65196106 12.94455505 430.23719543 13.50143005 430.84016418 14.07518005 C438.30465281 21.95646753 441.13956326 31.86783978 441.27445984 42.47113037 C441.28448662 43.17309058 441.2945134 43.87505079 441.30484402 44.59828252 C441.33686895 46.94512047 441.36184292 49.29197514 441.3865509 51.63890076 C441.40755952 53.32481674 441.42880579 55.01072979 441.45027161 56.69664001 C441.63848347 72.13255903 441.74101539 87.56953394 441.82241631 103.0063448 C441.87823093 113.36622245 441.95841027 123.72466258 442.10237122 134.08372498 C442.2282249 143.13990606 442.30691146 152.19509481 442.33054745 161.2521407 C442.34449622 166.03380242 442.37998173 170.81284492 442.47178268 175.5936985 C442.86760974 197.12189265 442.64234587 213.66072566 429.77842903 231.87844372 C426.7895009 236.26000403 424.30485959 240.92974602 421.75422668 245.57518005 C420.68966714 247.44658372 419.62469871 249.31775501 418.55891418 251.1884613 C415.91741553 255.85069874 413.32994575 260.54018203 410.76203918 265.2431488 C410.39744095 265.90962936 410.03284271 266.57610992 409.65719604 267.26278687 C407.85500708 270.55762081 406.05840155 273.85528967 404.27058411 277.15794373 C403.61564155 278.35705465 402.96046136 279.55603581 402.30500793 280.75486755 C401.72791077 281.81818298 401.1508136 282.88149841 400.55622864 283.97703552 C399.06672668 286.38768005 399.06672668 286.38768005 397.06672668 287.38768005 C397.06672668 207.19768005 397.06672668 127.00768005 397.06672668 44.38768005 C264.73672668 44.38768005 132.40672668 44.38768005 -3.93327332 44.38768005 C-3.93327332 220.93768005 -3.93327332 397.48768005 -3.93327332 579.38768005 C128.39672668 579.38768005 260.72672668 579.38768005 397.06672668 579.38768005 C397.06672668 557.27768005 397.06672668 535.16768005 397.06672668 512.38768005 C401.35672668 504.79768005 405.64672668 497.20768005 410.06672668 489.38768005 C412.55257952 484.93276381 415.03419585 480.47627808 417.50422668 476.01268005 C418.75667351 473.75738434 420.00928204 471.50217841 421.26203918 469.24705505 C423.53476477 465.15309204 425.80225522 461.05632428 428.06359863 456.95606995 C429.04126811 455.1852665 430.0213822 453.41584248 431.0025177 451.6469574 C432.2313668 449.43096855 433.45598116 447.21262482 434.67585754 444.99168396 C435.22378967 444.00603455 435.7717218 443.02038513 436.33625793 442.00486755 C437.05712585 440.69945007 437.05712585 440.69945007 437.79255676 439.36766052 C439.06672668 437.38768005 439.06672668 437.38768005 441.06672668 436.38768005 C441.16031902 456.40714953 441.23077876 476.42657437 441.27397537 496.44621754 C441.29456867 505.74245343 441.32262723 515.0385531 441.3684845 524.33470154 C441.40845149 532.44066818 441.43418297 540.54653612 441.44308066 548.65259856 C441.44827877 552.94161719 441.4604282 557.23035355 441.48964691 561.51928139 C441.51697224 565.56338242 441.52513747 569.60708723 441.51915741 573.65127182 C441.52025005 575.12861351 441.52810162 576.60596964 441.54354858 578.08323097 C441.6818034 591.99785264 438.92979282 602.10985878 429.28938293 612.2587738 C421.30437077 619.85188353 411.86579194 623.50490323 400.97067261 623.52469444 C400.25209357 623.52734627 399.53351454 623.5299981 398.79316038 623.53273028 C396.37269867 623.54042162 393.9522877 623.54098239 391.53181458 623.5415802 C389.78387352 623.54559494 388.03593339 623.55003318 386.28799438 623.55485976 C381.47453095 623.56682996 376.66107754 623.57247475 371.84760213 623.57704091 C366.65993037 623.58299534 361.4722706 623.59460562 356.28460693 623.60533142 C343.75070114 623.62985958 331.21679137 623.64448345 318.68286896 623.65739149 C315.14291356 623.6611032 311.60295855 623.66507645 308.06300354 623.66914415 C286.08220307 623.6943811 264.10140198 623.71643509 242.12059021 623.7288723 C237.02857969 623.73180202 231.93656919 623.73476368 226.84455872 623.73777771 C224.9461564 623.73889679 224.9461564 623.73889679 223.00940251 623.74003847 C202.50913251 623.75269107 182.00894926 623.78591259 161.5087198 623.82757954 C140.46318369 623.87000427 119.41769199 623.89356799 98.37211323 623.89879286 C86.55518078 623.90220642 74.73838389 623.91395519 62.92149353 623.9468956 C52.85712961 623.97490464 42.79292903 623.98589163 32.72852916 623.97470014 C27.59485867 623.96951569 22.46153021 623.97238668 17.32790947 623.99716568 C12.62347383 624.01968318 7.91962542 624.01889878 3.21517932 623.99996181 C1.51791492 623.99716532 -0.17938953 624.00274077 -1.87658966 624.01777475 C-15.15678541 624.1281709 -26.97510683 621.92256877 -36.93327332 612.38768005 C-49.32721141 598.04571979 -49.37344588 583.26035623 -49.30749512 565.1630249 C-49.31023781 562.89456518 -49.31429168 560.62610673 -49.31953877 558.35765141 C-49.3301035 552.14262496 -49.32201088 545.92774279 -49.31078827 539.71272266 C-49.30284441 533.69276085 -49.30902201 527.67282367 -49.31476485 521.65286344 C-49.32667294 508.58585729 -49.32162021 495.51889949 -49.30948657 482.45189602 C-49.29894232 471.01848617 -49.29441212 459.58509277 -49.29578209 448.15167809 C-49.29586612 447.3927047 -49.29595015 446.63373132 -49.29603673 445.85175874 C-49.29638898 442.77072161 -49.296773 439.68968449 -49.2972023 436.60864737 C-49.30116521 407.72097383 -49.28845896 378.83332939 -49.26767574 349.94566418 C-49.24930143 324.28562242 -49.24349508 298.62560854 -49.24894714 272.96556091 C-49.24929358 271.31746065 -49.24963967 269.66936038 -49.24998543 268.02126012 C-49.25015643 267.20646623 -49.25032742 266.39167234 -49.2505036 265.55218772 C-49.25135716 261.45054201 -49.25218094 257.34889629 -49.2529726 253.24725056 C-49.25312968 252.43804077 -49.25328676 251.62883098 -49.2534486 250.79509968 C-49.25743884 229.34523998 -49.25196295 207.89538295 -49.24346131 186.44552487 C-49.24255428 184.13750314 -49.24164863 181.8294814 -49.24074608 179.52145966 C-49.24014497 177.99042023 -49.23953635 176.45938081 -49.23892017 174.92834139 C-49.23469986 164.25758759 -49.23412009 153.58683908 -49.23602567 142.91608472 C-49.23846883 129.16665072 -49.23439492 115.41724498 -49.21881566 101.6678187 C-49.21147646 95.03791483 -49.20749867 88.40804116 -49.21205902 81.77813148 C-49.2161311 75.71057166 -49.2109822 69.64309255 -49.19843294 63.57554498 C-49.19550172 61.37925928 -49.19594277 59.18296598 -49.20007602 56.98668221 C-49.20518203 54.00286755 -49.19799568 51.01932304 -49.18774891 48.03552723 C-49.19214539 47.18181487 -49.19654188 46.32810252 -49.20107159 45.44852009 C-49.12060959 33.15590566 -45.22260764 21.11205895 -36.69108582 11.9775238 C-25.13131744 1.52235552 -14.94221612 -0.05808969 0 0 Z " fill="#010101" transform="translate(396.9332733154297,56.61231994628906)"/>
<path d="M0 0 C3.32791865 0.66252226 5.88345556 1.91317998 8.82421875 3.58984375 C9.76313965 4.1223877 10.70206055 4.65493164 11.66943359 5.20361328 C12.66539551 5.7757959 13.66135742 6.34797852 14.6875 6.9375 C15.70666504 7.51999512 16.72583008 8.10249023 17.77587891 8.70263672 C19.85410805 9.89256689 21.93093505 11.08494931 24.00634766 12.27978516 C26.75212823 13.85756773 29.50563105 15.42078934 32.26171875 16.98046875 C33.79995317 17.86115177 35.33774409 18.74261007 36.875 19.625 C37.58744873 20.02581787 38.29989746 20.42663574 39.03393555 20.83959961 C43.88546793 23.65640379 43.88546793 23.65640379 45 27 C44.05053711 29.25463867 44.05053711 29.25463867 42.52734375 31.91796875 C41.68345093 33.40961548 41.68345093 33.40961548 40.82250977 34.93139648 C40.20045654 36.00591064 39.57840332 37.0804248 38.9375 38.1875 C37.98218384 39.86404663 37.98218384 39.86404663 37.00756836 41.57446289 C35.01756581 45.057151 33.01186531 48.52990307 31 52 C30.40606445 53.02544922 29.81212891 54.05089844 29.20019531 55.10742188 C26.33313621 60.04883478 23.45191671 64.98178812 20.5625 69.91015625 C16.86786663 76.21570465 13.2115276 82.54297534 9.5625 88.875 C8.94068848 89.95370361 8.31887695 91.03240723 7.67822266 92.14379883 C5.78500101 95.42892251 3.89239017 98.71439728 2 102 C-5.28193508 114.64302999 -12.57046042 127.28132332 -19.9375 139.875 C-25.01275123 148.55262241 -30.02258767 157.26605568 -35 166 C-40.5400173 175.72115617 -46.13374809 185.40894658 -51.78344727 195.06689453 C-57.93766742 205.59084625 -64.02369996 216.15380137 -70.10888672 226.71777344 C-73.8573323 233.2235961 -77.61094181 239.72644083 -81.36376953 246.22973633 C-85.20557052 252.88781962 -89.04535008 259.54705231 -92.87792969 266.21044922 C-94.15765267 268.42783899 -95.44337419 270.64177867 -96.73535156 272.85205078 C-99.4533425 277.5091223 -102.11923981 282.146761 -104.49609375 286.98828125 C-110.14347796 298.21616636 -117.21785384 303.40127724 -128.12548828 309.39013672 C-131.35669979 311.19976885 -134.52352189 313.10522591 -137.68359375 315.03515625 C-142.08383593 317.71672086 -146.48492046 320.39623863 -150.90625 323.04296875 C-152.27233398 323.86317505 -152.27233398 323.86317505 -153.66601562 324.69995117 C-156 326 -156 326 -159 327 C-159.25650282 319.62161772 -159.42987656 312.24440937 -159.54931641 304.86254883 C-159.59917465 302.35918226 -159.66709018 299.85610026 -159.75439453 297.35375977 C-160.28482519 281.7434974 -159.83958235 270.38836624 -150.24951172 257.69308472 C-148.47095789 255.28314949 -147.0234203 252.71876705 -145.55859375 250.109375 C-145.04683594 249.23087891 -144.53507813 248.35238281 -144.0078125 247.44726562 C-143.48960937 246.55716797 -142.97140625 245.66707031 -142.4375 244.75 C-137.49948915 236.27619742 -132.54790811 227.81048322 -127.58566284 219.3508606 C-117.20975435 201.66179597 -106.85014954 183.96428747 -96.625 166.1875 C-91.02638578 156.45437802 -85.33133019 146.782888 -79.58901978 137.13427734 C-75.39523035 130.08463901 -71.26769926 123.01023282 -67.28613281 115.83886719 C-63.71841377 109.43707274 -59.96633508 103.14685777 -56.22460938 96.84570312 C-51.86452795 89.4915311 -47.57632453 82.09784422 -43.3125 74.6875 C-39.23840836 67.6069034 -35.15740838 60.53204437 -31 53.5 C-24.85889079 43.10865143 -18.8567573 32.63680848 -12.83203125 22.17773438 C-10.08144318 17.40672501 -7.32282712 12.64037962 -4.5625 7.875 C-3.86265991 6.66674561 -3.86265991 6.66674561 -3.14868164 5.43408203 C-2.09929353 3.62262145 -1.04967711 1.81129313 0 0 Z " fill="#020202" transform="translate(876,264)"/>
<path d="M0 0 C107.25 0 214.5 0 325 0 C325 10.56 325 21.12 325 32 C217.75 32 110.5 32 0 32 C0 21.44 0 10.88 0 0 Z " fill="#040404" transform="translate(431,394)"/>
<path d="M0 0 C106.92 0 213.84 0 324 0 C324 10.23 324 20.46 324 31 C217.08 31 110.16 31 0 31 C0 20.77 0 10.54 0 0 Z " fill="#000000" transform="translate(431,248)"/>
<path d="M0 0 C81.84 0 163.68 0 248 0 C248 10.56 248 21.12 248 32 C166.16 32 84.32 32 0 32 C0 21.44 0 10.88 0 0 Z " fill="#030303" transform="translate(431,464)"/>
<path d="M0 0 C81.84 0 163.68 0 248 0 C248 10.56 248 21.12 248 32 C166.16 32 84.32 32 0 32 C0 21.44 0 10.88 0 0 Z " fill="#040404" transform="translate(431,317)"/>
<path d="M0 0 C81.84 0 163.68 0 248 0 C248 10.56 248 21.12 248 32 C166.16 32 84.32 32 0 32 C0 21.44 0 10.88 0 0 Z " fill="#030303" transform="translate(431,171)"/>
<path d="M0 0 C1.87824522 1.06269137 3.73620747 2.16281585 5.5625 3.3125 C6.1915625 3.70695313 6.820625 4.10140625 7.46875 4.5078125 C12.69364809 8.3198555 16.43103745 14.96945238 17.5625 21.3125 C18.49390955 32.62247314 17.15269495 40.17380555 10.29296875 49.34765625 C5.32216505 55.17387051 -2.42543241 58.63625784 -9.890625 59.89453125 C-19.02215035 60.18665351 -26.50501581 57.89822954 -33.6875 52.25 C-40.18531007 45.96350083 -43.68619822 39.5887727 -44.03710938 30.50708008 C-44.04548828 29.72099365 -44.05386719 28.93490723 -44.0625 28.125 C-44.07345703 27.37694092 -44.08441406 26.62888184 -44.09570312 25.8581543 C-43.89226607 17.90744844 -40.40078306 11.73211611 -35.140625 5.9140625 C-25.44536758 -3.20303737 -12.09669297 -5.8600418 0 0 Z " fill="#030303" transform="translate(571.4375,541.6875)"/>
<path d="M0 0 C6.57468653 5.56411084 10.27887829 12.59158715 11.4140625 21.10546875 C11.82023376 30.05192517 9.82886944 37.96153523 4.35546875 45.1640625 C-2.61505775 52.55942922 -10.88830582 55.90831916 -20.9375 56.375 C-29.41467148 56.16728983 -36.94920982 51.7733522 -43 46 C-49.93966421 37.03479928 -51.06654643 28.02563315 -50 17 C-48.23135983 8.43664727 -43.12022862 2.63473019 -36.1015625 -2.34765625 C-24.76716038 -9.25223745 -10.52514836 -7.31912249 0 0 Z " fill="#030303" transform="translate(480,545)"/>
<path d="M0 0 C3.79097084 1.4145478 7.18856883 3.16057138 10.68359375 5.1953125 C12.31385498 6.14071899 12.31385498 6.14071899 13.97705078 7.10522461 C15.13055773 7.77844217 16.28404041 8.45170131 17.4375 9.125 C18.61160447 9.80708695 19.78592145 10.48880822 20.96044922 11.17016602 C23.26288323 12.50600763 25.56453513 13.84316063 27.86572266 15.18115234 C31.77587226 17.45024523 35.69700604 19.69947551 39.625 21.9375 C40.68976562 22.54464844 41.75453125 23.15179688 42.8515625 23.77734375 C43.56054688 24.18082031 44.26953125 24.58429688 45 25 C43.55454275 28.8617903 41.76719216 32.36725026 39.7421875 35.95703125 C39.11699219 37.06884766 38.49179687 38.18066406 37.84765625 39.32617188 C37.1901709 40.48831901 36.53261797 41.65042791 35.875 42.8125 C35.20935359 43.99398189 34.54398616 45.175621 33.87890625 46.35742188 C32.25534066 49.23983905 30.62894985 52.12062331 29 55 C24.66692113 54.40423295 21.5770745 52.83289138 17.80859375 50.6484375 C17.22263931 50.31131744 16.63668488 49.97419739 16.03297424 49.62686157 C14.16394423 48.54944974 12.3007199 47.46242223 10.4375 46.375 C9.21325974 45.66732981 7.98865311 44.96029303 6.76367188 44.25390625 C3.17019003 42.17882492 -0.41569215 40.0908772 -4 38 C-5.19253322 37.30499182 -6.38507861 36.61000453 -7.57763672 35.91503906 C-10.38572634 34.27777723 -13.19320571 32.63948113 -16 31 C-15.4059762 26.99429803 -14.13816438 24.08930666 -12.12890625 20.5859375 C-11.55462891 19.57789063 -10.98035156 18.56984375 -10.38867188 17.53125 C-9.78603516 16.4896875 -9.18339844 15.448125 -8.5625 14.375 C-7.96373047 13.32570312 -7.36496094 12.27640625 -6.74804688 11.1953125 C-2.4015377 3.60230655 -2.4015377 3.60230655 0 0 Z " fill="#040404" transform="translate(906,217)"/>
</svg>
