<?xml version="1.0" encoding="UTF-8"?>
<svg version="1.1" xmlns="http://www.w3.org/2000/svg" width="200" height="200">
<path d="M0 0 C2.73927218 2.35236933 5.34958094 4.81282958 7.91601562 7.3515625 C10.02821564 9.62709872 10.02821564 9.62709872 12.24414062 10.609375 C13.9922555 10.01674321 15.71830184 9.35859783 17.43164062 8.671875 C25.93750619 5.73776032 35.56042543 4.76355964 44.11914062 8.109375 C56.01759185 14.54036465 62.26443292 25.00696726 66.24414062 37.609375 C66.24414062 38.929375 66.24414062 40.249375 66.24414062 41.609375 C65.25414062 41.609375 64.26414063 41.609375 63.24414062 41.609375 C62.74914062 40.43375 62.25414062 39.258125 61.74414062 38.046875 C58.57723451 31.85551876 54.45146514 27.90839891 47.97460938 25.28515625 C43.25351443 23.7750417 39.22156263 22.609375 34.24414062 22.609375 C34.72625 23.12886719 35.20835937 23.64835937 35.70507812 24.18359375 C42.17615598 31.32819195 44.5550749 37.30978775 44.47851562 47.109375 C43.95497432 52.69381563 42.53011042 58.15931252 41.24414062 63.609375 C39.92414063 63.609375 38.60414063 63.609375 37.24414062 63.609375 C37.29054688 62.6915625 37.33695312 61.77375 37.38476562 60.828125 C37.80468396 50.49133468 37.80468396 50.49133468 33.24414062 41.609375 C30.05034846 38.43060067 26.72015175 35.4750941 23.24414062 32.609375 C22.79039063 33.393125 22.33664063 34.176875 21.86914062 34.984375 C20.24414062 37.609375 20.24414062 37.609375 18.24414062 39.609375 C16.85195312 39.7640625 16.85195312 39.7640625 15.43164062 39.921875 C11.38620527 40.79441988 10.08599528 42.69465228 7.24414062 45.609375 C3.07211595 47.21399987 0.31241886 46.21776407 -3.75585938 44.609375 C-4.54374466 46.16334638 -5.30983488 47.72836269 -6.06835938 49.296875 C-6.49761719 50.16699219 -6.926875 51.03710938 -7.36914062 51.93359375 C-11.378776 62.56195117 -12.1862231 72.70036963 -12.00585938 83.984375 C-11.998125 85.95470703 -11.998125 85.95470703 -11.99023438 87.96484375 C-11.94114226 94.02158355 -11.61735599 99.5788987 -10.75585938 105.609375 C0.62914063 105.114375 0.62914063 105.114375 12.24414062 104.609375 C13.23414062 102.299375 14.22414063 99.989375 15.24414062 97.609375 C17.84461917 95.38039339 19.27740278 95.60996897 22.74414062 95.671875 C26.24414062 96.609375 26.24414062 96.609375 28.68164062 98.796875 C30.47290048 102.02114273 30.5819969 103.97742003 30.24414062 107.609375 C31.40558594 108.03863281 32.56703125 108.46789062 33.76367188 108.91015625 C57.55639424 117.84877189 79.25707879 130.70236647 93.24414062 152.609375 C93.24414062 153.269375 93.24414062 153.929375 93.24414062 154.609375 C92.0453125 154.64804687 92.0453125 154.64804687 90.82226562 154.6875 C83.69346921 155.05565381 77.78127828 156.26830967 71.08398438 158.6796875 C61.79461605 161.72077369 53.091159 160.6041401 44.11914062 157.046875 C35.00579814 153.48157535 26.14311916 154.4967636 17.18164062 158.171875 C7.75035866 161.93670446 -1.62615134 160.71622213 -10.88085938 157.046875 C-19.99420186 153.48157535 -28.85688084 154.4967636 -37.81835938 158.171875 C-47.24964134 161.93670446 -56.62615134 160.71622213 -65.88085938 157.046875 C-72.92948509 154.26415102 -79.34625312 154.49450369 -86.75585938 155.609375 C-79.74848359 135.87716259 -57.73827022 122.73621 -39.87695312 113.984375 C-36.87550287 112.66208402 -33.87173137 111.62476579 -30.75585938 110.609375 C-30.74127686 109.83561523 -30.72669434 109.06185547 -30.71166992 108.26464844 C-29.41460147 46.39035817 -29.41460147 46.39035817 -8.75585938 25.609375 C-18.53049134 24.83086449 -28.51672495 26.94093326 -36.36132812 33.125 C-38.95524036 35.88602703 -40.35884005 39.12735698 -41.75585938 42.609375 C-42.37460938 44.094375 -42.37460938 44.094375 -43.00585938 45.609375 C-43.25335938 46.269375 -43.50085937 46.929375 -43.75585938 47.609375 C-44.41585937 47.609375 -45.07585938 47.609375 -45.75585938 47.609375 C-46.34639746 36.97968951 -43.01129499 28.18389894 -36.75585938 19.609375 C-32.00954345 14.36080342 -25.68032751 11.65853684 -18.75585938 10.609375 C-27.71190997 6.7012802 -38.45622756 5.70774701 -47.90039062 8.55859375 C-52.69976682 10.83955665 -56.15150572 13.68699014 -59.75585938 17.609375 C-62.06835938 18.921875 -62.06835938 18.921875 -63.75585938 19.609375 C-63.36792475 14.28121171 -61.42315824 11.40443889 -57.81835938 7.671875 C-57.3261792 7.15117432 -56.83399902 6.63047363 -56.3269043 6.09399414 C-40.4179964 -10.29908683 -18.94058723 -15.00077654 0 0 Z " fill="#000000" transform="translate(96.755859375,23.390625)"/>
</svg>
