<?xml version="1.0" encoding="UTF-8"?>
<svg version="1.1" xmlns="http://www.w3.org/2000/svg" width="512" height="512">
<path d="M0 0 C2.40190149 2.19948099 4.65630303 4.51314306 6.88720703 6.88476562 C7.62197266 7.66207031 8.35673828 8.439375 9.11376953 9.24023438 C27.35223442 30.2602412 33.51869478 63.1453887 34.02001953 90.19726562 C34.04177246 91.08333496 34.06352539 91.9694043 34.0859375 92.88232422 C34.11912024 94.58286059 34.1275828 96.28413454 34.10644531 97.98486328 C34.21847752 103.72445017 35.72302576 106.80013253 39.46679688 111.14697266 C44.08166405 116.79300644 43.42598272 125.00695727 42.88720703 131.88476562 C41.46610066 140.86660197 38.81276781 148.67168237 31.82470703 154.75976562 C28.88720703 156.88476562 28.88720703 156.88476562 26.79516602 157.74511719 C24.73086243 158.73189627 24.73086243 158.73189627 23.99682617 160.85253906 C23.80725342 161.64176758 23.61768066 162.43099609 23.42236328 163.24414062 C19.54743639 177.49862014 19.54743639 177.49862014 15.00048828 181.29492188 C11.67342293 182.73571374 8.3524762 183.8236493 4.88720703 184.88476562 C-32.32352424 202.43530353 -60.66390307 236.07540251 -74.80419922 274.34179688 C-83.59410915 299.53558289 -86.27127213 327.62073745 -81.11279297 353.88476562 C-80.92740967 354.85422119 -80.92740967 354.85422119 -80.73828125 355.84326172 C-77.4773367 372.46419726 -71.49339934 387.90223035 -63.61669922 402.85742188 C-62.11279297 405.88476562 -62.11279297 405.88476562 -62.11279297 407.88476562 C-111.43230502 409.14127266 -161.47795045 404.41738188 -210.17529297 396.82226562 C-211.32173279 396.64550797 -211.32173279 396.64550797 -212.49133301 396.46517944 C-220.17563176 395.26491421 -227.80223389 393.8631746 -235.35888672 392.01367188 C-236.54023193 391.72693604 -237.72157715 391.4402002 -238.9387207 391.14477539 C-243.19788203 389.4540184 -246.01077153 386.93652918 -248.18701172 382.88476562 C-254.81459341 361.2712508 -255.46726052 330.29215717 -246.46044922 309.16210938 C-243.66650067 304.44074125 -240.07399812 300.64597508 -236.11279297 296.88476562 C-235.44505859 296.24667969 -234.77732422 295.60859375 -234.08935547 294.95117188 C-222.38067916 284.87991582 -205.80373229 280.9997244 -191.30029297 276.75976562 C-175.84811191 272.28191861 -175.84811191 272.28191861 -161.11279297 265.88476562 C-160.00806641 265.32273437 -158.90333984 264.76070313 -157.76513672 264.18164062 C-146.99675342 258.04598626 -137.80557403 250.87531739 -133.00732422 239.19335938 C-130.4953962 229.90251645 -130.50489788 216.46444908 -135.11279297 207.88476562 C-138.76466248 202.69157949 -143.12110566 198.80040611 -148.17529297 195.00976562 C-155.23556615 189.45855846 -159.01952942 183.08812953 -162.03857422 174.68554688 C-162.37356934 173.75379639 -162.70856445 172.8220459 -163.05371094 171.86206055 C-163.70573953 169.99590424 -164.32974717 168.11966094 -164.921875 166.23364258 C-166.91214552 160.40284735 -168.79322153 157.76422411 -174.26489258 154.87451172 C-179.3879107 152.1305937 -182.09372489 146.48944069 -183.92529297 141.19726562 C-184.33940522 139.76492442 -184.73802528 138.32790091 -185.11279297 136.88476562 C-185.33966797 136.08039063 -185.56654297 135.27601563 -185.80029297 134.44726562 C-187.13613848 123.49333239 -185.34336835 115.02294285 -179.11279297 105.88476562 C-178.21573429 101.7154313 -177.93177437 97.61543573 -177.75341797 93.36132812 C-175.93755896 55.85121273 -168.93067126 23.17228225 -140.73779297 -3.36523438 C-131.29180899 -11.43542672 -120.94080231 -16.52434394 -109.11279297 -20.11523438 C-108.19626953 -20.41171875 -107.27974609 -20.70820313 -106.33544922 -21.01367188 C-72.25794637 -30.88979178 -27.30474907 -23.54001602 0 0 Z " fill="#000000" transform="translate(273.11279296875,37.115234375)"/>
<path d="M0 0 C0.68075592 0.00215515 1.36151184 0.0043103 2.06289673 0.00653076 C12.59735946 0.05993546 22.538732 0.60005578 32.75 3.3125 C33.53342773 3.51117676 34.31685547 3.70985352 35.12402344 3.91455078 C47.09669723 7.00614063 57.99653832 11.21300497 68.75 17.3125 C69.33894043 17.64540039 69.92788086 17.97830078 70.53466797 18.32128906 C78.15033972 22.68712386 85.08925627 27.60639055 91.75 33.3125 C92.58273437 34.01117188 93.41546875 34.70984375 94.2734375 35.4296875 C119.80383026 57.50365786 136.03625291 90.78286957 138.75 124.3125 C140.53037842 160.5295983 130.84683779 195.78183554 106.4375 223.375 C104.88447395 225.02977603 103.32142026 226.67518147 101.75 228.3125 C100.42742187 229.74722656 100.42742187 229.74722656 99.078125 231.2109375 C83.26156883 248.04256171 61.92068577 260.11588221 39.75 266.3125 C38.73808594 266.60640625 37.72617187 266.9003125 36.68359375 267.203125 C0.39349891 277.06088711 -38.78868649 270.91521712 -71.29296875 252.59765625 C-74.02076439 250.9247657 -76.63951275 249.16287479 -79.25 247.3125 C-80.75046875 246.25675781 -80.75046875 246.25675781 -82.28125 245.1796875 C-110.75648004 224.23795279 -130.76581892 193.73444316 -136.87109375 158.75390625 C-140.31686993 135.15628039 -138.39289786 111.74203902 -130.25 89.3125 C-129.88132813 88.2915625 -129.51265625 87.270625 -129.1328125 86.21875 C-116.55942771 53.96151455 -90.85539176 26.82789044 -59.33984375 12.4921875 C-52.05019793 9.31008374 -44.65254782 6.66699157 -37 4.5 C-36.31663574 4.30519043 -35.63327148 4.11038086 -34.92919922 3.90966797 C-23.38245388 0.81800579 -11.92029308 -0.05159343 0 0 Z M-18.125 38 C-22.37452412 44.62425819 -23.70130145 51.21635695 -23.63818359 58.99414062 C-23.64344055 59.81005173 -23.64869751 60.62596283 -23.65411377 61.46659851 C-23.66719901 64.13418348 -23.65861684 66.80116012 -23.6484375 69.46875 C-23.65046154 71.34004835 -23.65337572 73.21134593 -23.65713501 75.0826416 C-23.66154283 78.99283402 -23.65517718 82.90281998 -23.64111328 86.81298828 C-23.62402237 91.80607796 -23.63387185 96.79868372 -23.65183067 101.79175568 C-23.6627103 105.65240068 -23.65920305 109.51293238 -23.6514473 113.37358093 C-23.64945683 115.21384235 -23.65186369 117.05411431 -23.65888596 118.8943634 C-23.66656963 121.4734696 -23.65480055 124.05180972 -23.63818359 126.63085938 C-23.64425629 127.37917526 -23.65032898 128.12749115 -23.65658569 128.89848328 C-23.57019803 136.19561823 -21.91394746 143.33759996 -16.71875 148.6953125 C-15.52378906 149.94489746 -15.52378906 149.94489746 -14.3046875 151.21972656 C-13.83450195 151.69559204 -13.36431641 152.17145752 -12.87988281 152.66174316 C-10.97014358 154.59594056 -9.08333188 156.5514338 -7.1953125 158.50683594 C-3.24401993 162.58443189 0.74230385 166.62586212 4.74267578 170.65527344 C6.41960452 172.34885717 8.0911362 174.04780133 9.75732422 175.75195312 C12.19065759 178.24018807 14.64016282 180.71144108 17.09375 183.1796875 C17.82839478 183.93700165 18.56303955 184.6943158 19.31994629 185.47457886 C24.89032573 191.0226307 30.34394465 194.59150912 38.1875 195.875 C44.33076106 194.90501141 49.61672339 192.28167841 54.1875 188.0625 C57.31348099 182.56077346 59.29241685 177.72444602 58.375 171.3125 C56.08491574 163.15034101 51.1950437 158.08124891 44.1946106 153.574646 C32.96428998 146.25762176 20.5455085 136.92474927 17.24720764 123.22395325 C13.43900477 102.25487973 15.16032665 79.60019005 16.53884888 58.44570923 C17.17601813 47.81968272 17.17601813 47.81968272 12.75 38.3125 C8.39093461 33.83234946 2.91210533 31.78345186 -3.1875 30.875 C-9.11749089 31.72214156 -13.75203561 33.91222894 -18.125 38 Z " fill="#000000" transform="translate(352.25,228.6875)"/>
</svg>
