<?xml version="1.0" encoding="UTF-8"?>
<svg version="1.1" xmlns="http://www.w3.org/2000/svg" width="225" height="225">
<path d="M0 0 C74.25 0 148.5 0 225 0 C225 74.25 225 148.5 225 225 C150.75 225 76.5 225 0 225 C0 150.75 0 76.5 0 0 Z " fill="#6B6B6B" transform="translate(0,0)"/>
<path d="M0 0 C34 0 34 0 50 1 C48.35 4.63 46.7 8.26 45 12 C45.99 12.99 46.98 13.98 48 15 C48.58261597 16.30843872 48.58261597 16.30843872 49.17700195 17.64331055 C50.88911043 20.39995447 50.88911043 20.39995447 54.64526367 20.65942383 C56.15235559 20.70051073 57.66033643 20.71471156 59.16796875 20.70703125 C59.96278152 20.72215256 60.7575943 20.73727386 61.57649231 20.75285339 C64.11378134 20.79582342 66.64988296 20.8045767 69.1875 20.8125 C70.9082349 20.83563729 72.62894141 20.86100103 74.34960938 20.88867188 C78.56651162 20.95161536 82.78266928 20.98387798 87 21 C86.98195313 21.77472656 86.96390625 22.54945312 86.9453125 23.34765625 C87.00775145 26.37594522 87.78745054 28.23808179 89 31 C89.66666667 33 90.33333333 35 91 37 C92.22076948 40.57745647 92.22076948 40.57745647 94.5 43.5 C96.4346384 45.4346384 97.10217772 47.44465967 98 50 C96.35 50.33 94.7 50.66 93 51 C114.01752962 51.18533977 134.99502059 50.6462013 156 50 C155.99476318 49.13197754 155.98952637 48.26395508 155.98413086 47.36962891 C155.96710138 44.15299727 155.95455592 40.93638859 155.94506836 37.71972656 C155.9400357 36.32681523 155.93320902 34.9339092 155.92456055 33.54101562 C155.91244848 31.54038754 155.90729588 29.53972112 155.90234375 27.5390625 C155.89710693 26.33459473 155.89187012 25.13012695 155.88647461 23.88916016 C156 21 156 21 157 19 C168.55 19 180.1 19 192 19 C192 49.03 192 79.06 192 110 C180.12 110.33 168.24 110.66 156 111 C156.33 111.66 156.66 112.32 157 113 C156.34 113.66 155.68 114.32 155 115 C155 117.31 155 119.62 155 122 C103.85 122 52.7 122 0 122 C0 81.74 0 41.48 0 0 Z " fill="#404040" transform="translate(0,0)"/>
<path d="M0 0 C53.13 0 106.26 0 161 0 C160.67 2.97 160.34 5.94 160 9 C160 12.3 160 15.6 160 19 C147.79 19 135.58 19 123 19 C123 29.56 123 40.12 123 51 C91.27467677 51.93802434 59.72050244 52.19675988 28 51 C28.66 48.69 29.32 46.38 30 44 C29.39671875 43.84144531 28.7934375 43.68289062 28.171875 43.51953125 C22.86756553 41.9710151 20.15477322 40.73215983 17 36 C16.175 35.195625 15.35 34.39125 14.5 33.5625 C5.43835428 24.27431313 2.73435506 12.30459777 0 0 Z " fill="#7A7A7A" transform="translate(34,0)"/>
<path d="M0 0 C7.92 -0.0309375 7.92 -0.0309375 16 -0.0625 C18.4440625 -0.07615601 18.4440625 -0.07615601 20.9375 -0.09008789 C30.66332161 -0.12057478 40.30222941 0.26754747 50 1 C48.35 4.63 46.7 8.26 45 12 C45.99 12.99 46.98 13.98 48 15 C48.58261597 16.30843872 48.58261597 16.30843872 49.17700195 17.64331055 C50.88911043 20.39995447 50.88911043 20.39995447 54.64526367 20.65942383 C56.15235559 20.70051073 57.66033643 20.71471156 59.16796875 20.70703125 C59.96278152 20.72215256 60.7575943 20.73727386 61.57649231 20.75285339 C64.11378134 20.79582342 66.64988296 20.8045767 69.1875 20.8125 C70.9082349 20.83563729 72.62894141 20.86100103 74.34960938 20.88867188 C78.56651162 20.95161536 82.78266928 20.98387798 87 21 C86.98195313 21.77472656 86.96390625 22.54945312 86.9453125 23.34765625 C87.00775145 26.37594522 87.78745054 28.23808179 89 31 C89.66666667 33 90.33333333 35 91 37 C92.22076948 40.57745647 92.22076948 40.57745647 94.5 43.5 C96 45 96 45 98 50 C86.12 50 74.24 50 62 50 C62 50.66 62 51.32 62 52 C67.94 52.33 73.88 52.66 80 53 C79 55 79 55 77.0625 55.875 C74.55583997 57.24226911 73.91810692 58.32914351 73 61 C73.33 61.66 73.66 62.32 74 63 C49.58 63 25.16 63 0 63 C0 42.21 0 21.42 0 0 Z " fill="#474747" transform="translate(0,0)"/>
<path d="M0 0 C11.55 0 23.1 0 35 0 C35 10.89 35 21.78 35 33 C12.23 33.33 -10.54 33.66 -34 34 C-34 33.34 -34 32.68 -34 32 C-23.11 31.67 -12.22 31.34 -1 31 C-1.03956538 21.546114 -1.03956538 21.546114 -1.09008789 12.09228516 C-1.09258545 10.91972168 -1.09508301 9.7471582 -1.09765625 8.5390625 C-1.10289307 7.33459473 -1.10812988 6.13012695 -1.11352539 4.88916016 C-1 2 -1 2 0 0 Z " fill="#000000" transform="translate(157,19)"/>
<path d="M0 0 C17.16 0 34.32 0 52 0 C52 4.95 52 9.9 52 15 C52.495 17.475 52.495 17.475 53 20 C53 20.33 53 20.66 53 21 C37.49 21 21.98 21 6 21 C5.34 19.02 4.68 17.04 4 15 C3.67 14.071875 3.34 13.14375 3 12.1875 C1.74763088 8.19557342 0.90758649 4.0841392 0 0 Z " fill="#A5A5A5" transform="translate(34,0)"/>
<path d="M0 0 C7.92 0 15.84 0 24 0 C23.67 0.99 23.34 1.98 23 3 C15.41 3 7.82 3 0 3 C0 2.01 0 1.02 0 0 Z " fill="#A7A7A7" transform="translate(0,0)"/>
</svg>
