<?xml version="1.0" encoding="UTF-8"?>
<svg version="1.1" xmlns="http://www.w3.org/2000/svg" width="200" height="200">
<path d="M0 0 C1.02485504 -0.00043808 2.04971008 -0.00087616 3.10562134 -0.00132751 C6.48751993 0.00075974 9.8689206 0.02408839 13.25073242 0.04760742 C15.59770944 0.05320359 17.94468997 0.05747359 20.29167175 0.06047058 C26.46489154 0.07191766 32.63789913 0.10138397 38.81103516 0.13458252 C45.11186859 0.16528616 51.41273635 0.17897657 57.71362305 0.1940918 C70.07374225 0.22625355 82.43370406 0.2774485 94.79370117 0.34057617 C94.37217773 0.87166992 93.9506543 1.40276367 93.51635742 1.94995117 C92.96850586 2.65635742 92.4206543 3.36276367 91.85620117 4.09057617 C91.03829102 5.1347168 91.03829102 5.1347168 90.20385742 6.19995117 C87.78992225 9.86431814 87.66851537 13.09175898 87.66239929 17.40608215 C87.65839111 18.42799149 87.65438293 19.44990082 87.6502533 20.5027771 C87.65078201 21.61818878 87.65131073 22.73360046 87.65185547 23.8828125 C87.64664383 25.651726 87.64664383 25.651726 87.6413269 27.45637512 C87.63397256 30.018726 87.62862546 32.58108324 87.62503624 35.14344215 C87.61911298 39.19932411 87.60255993 43.25511893 87.58369446 47.31095886 C87.57735741 48.70109648 87.57103178 50.09123416 87.56471729 51.48137188 C87.56155148 52.17747204 87.55838567 52.8735722 87.55512393 53.59076631 C87.51309524 63.02989652 87.48007765 72.46898555 87.46777344 81.90820312 C87.45938276 88.2797829 87.43685625 94.6511461 87.39841777 101.02261752 C87.37869294 104.39144044 87.36624053 107.75993989 87.37125206 111.12882423 C87.37360318 114.88959959 87.35145089 118.64949918 87.32373047 122.41015625 C87.33363258 124.07416473 87.33363258 124.07416473 87.34373474 125.77178955 C87.26614099 132.18439894 86.6005741 136.11748631 82.79370117 141.34057617 C78.90760926 144.99114736 74.54919281 144.84005844 69.45385742 144.69604492 C64.81276937 144.07587016 62.28776931 141.73160513 58.98120117 138.65307617 C56.40538191 133.63700708 56.34292913 128.86819253 57.91870117 123.52807617 C60.23489987 119.59053839 62.72934924 117.37275214 66.79370117 115.34057617 C68.79330129 115.30058417 70.79417359 115.29710818 72.79370117 115.34057617 C72.79370117 114.35057617 72.79370117 113.36057617 72.79370117 112.34057617 C42.43370117 112.34057617 12.07370117 112.34057617 -19.20629883 112.34057617 C-19.36673407 87.16561351 -19.36673407 87.16561351 -19.40161133 76.42456055 C-19.42551147 69.09884028 -19.45376873 61.77332022 -19.50805664 54.44775391 C-19.55155624 48.54090749 -19.57544497 42.63427582 -19.5858078 36.72728157 C-19.5931917 34.47504357 -19.60761074 32.22281715 -19.62921906 29.9706707 C-19.65830694 26.81303494 -19.66225247 23.65628361 -19.66040039 20.49853516 C-19.67478149 19.56992676 -19.6891626 18.64131836 -19.70397949 17.68457031 C-19.66620116 11.72192416 -18.81142007 8.15866759 -15.20629883 3.34057617 C-10.78661034 -0.66919777 -5.64631689 -0.06318424 0 0 Z M21.66870117 17.27807617 C20.62842773 17.82270508 19.5881543 18.36733398 18.51635742 18.9284668 C13.16866197 21.71833747 13.16866197 21.71833747 10.05786133 26.55957031 C10.01080297 28.95575156 10.2748727 31.00374112 10.79370117 33.34057617 C11.0128418 34.47624023 11.23198242 35.6119043 11.45776367 36.78198242 C14.89451394 47.94443553 20.3377201 55.3811109 29.79370117 62.34057617 C32.75145987 63.98858301 32.75145987 63.98858301 35.79370117 63.34057617 C45.7304463 58.00417601 52.04107157 48.71458115 55.79370117 38.34057617 C56.4975046 36.01792284 56.4975046 36.01792284 56.79370117 33.34057617 C57.01171387 32.31746338 57.01171387 32.31746338 57.23413086 31.27368164 C57.58071791 28.62716984 57.59660659 26.89812101 56.79370117 24.34057617 C53.5702116 21.26332749 49.8473253 19.33488372 45.91870117 17.27807617 C44.88616211 16.69864258 43.85362305 16.11920898 42.78979492 15.5222168 C33.28496574 10.26039306 30.98174969 12.05183983 21.66870117 17.27807617 Z M0.79370117 71.34057617 C0.79370117 72.33057617 0.79370117 73.32057617 0.79370117 74.34057617 C22.57370117 74.34057617 44.35370117 74.34057617 66.79370117 74.34057617 C66.79370117 73.35057617 66.79370117 72.36057617 66.79370117 71.34057617 C45.01370117 71.34057617 23.23370117 71.34057617 0.79370117 71.34057617 Z M0.79370117 85.34057617 C0.79370117 86.00057617 0.79370117 86.66057617 0.79370117 87.34057617 C22.57370117 87.34057617 44.35370117 87.34057617 66.79370117 87.34057617 C66.79370117 86.68057617 66.79370117 86.02057617 66.79370117 85.34057617 C45.01370117 85.34057617 23.23370117 85.34057617 0.79370117 85.34057617 Z M0.79370117 98.34057617 C0.79370117 99.33057617 0.79370117 100.32057617 0.79370117 101.34057617 C22.57370117 101.34057617 44.35370117 101.34057617 66.79370117 101.34057617 C66.79370117 100.35057617 66.79370117 99.36057617 66.79370117 98.34057617 C45.01370117 98.34057617 23.23370117 98.34057617 0.79370117 98.34057617 Z " fill="#000000" transform="translate(66.206298828125,27.659423828125)"/>
<path d="M0 0 C1.01510147 -0.00043808 2.03020294 -0.00087616 3.07606506 -0.00132751 C6.42549997 0.0007596 9.77443202 0.02408758 13.1237793 0.04760742 C15.44833604 0.05320364 17.77289633 0.05747361 20.09745789 0.06047058 C26.21149488 0.07191727 32.3253176 0.10138323 38.43927002 0.13458252 C44.67978009 0.16528701 50.92032482 0.17897675 57.16088867 0.1940918 C69.4025192 0.22625286 81.64399079 0.27744733 93.88549805 0.34057617 C93.36149414 1.04633789 93.36149414 1.04633789 92.8269043 1.76635742 C92.37186523 2.38897461 91.91682617 3.0115918 91.44799805 3.65307617 C90.99553711 4.26795898 90.54307617 4.8828418 90.0769043 5.51635742 C87.29375527 9.77776921 87.27368885 14.42978767 87.88549805 19.34057617 C88.95469512 21.98569878 90.26074816 23.9512381 91.88549805 26.34057617 C92.87549805 27.82557617 92.87549805 27.82557617 93.88549805 29.34057617 C80.42926563 29.43325965 66.97310916 29.5043331 53.51662254 29.54782486 C47.26820984 29.56869882 41.02001553 29.59701364 34.77172852 29.64233398 C28.74169391 29.68579754 22.71186938 29.70971472 16.68169022 29.72008514 C14.38117796 29.72747551 12.08067719 29.7419071 9.78025436 29.7634964 C6.55775869 29.7925363 3.33613088 29.79653181 0.11352539 29.79467773 C-0.83737976 29.80905884 -1.78828491 29.82343994 -2.76800537 29.83825684 C-8.54606166 29.8022885 -11.67175696 29.10665298 -16.11450195 25.34057617 C-19.71507469 21.37994616 -19.61781078 17.12561958 -19.46606445 12.00073242 C-18.84293515 7.28572069 -16.70760817 4.63490325 -13.10212708 1.70561218 C-8.73780278 -0.28843311 -4.74377081 -0.05360448 0 0 Z " fill="#000000" transform="translate(34.114501953125,142.659423828125)"/>
<path d="M0 0 C7.05092136 2.21243099 14.34510567 5.94080652 19.86328125 10.8984375 C21.69555529 14.94089209 21.14355131 17.73607113 19.86328125 21.8984375 C19.61707031 22.76855469 19.37085938 23.63867188 19.1171875 24.53515625 C16.15894299 33.12063921 10.49228345 40.86468947 2.86328125 45.8984375 C0.89453125 46.71484375 0.89453125 46.71484375 -1.13671875 46.8984375 C-9.52699246 42.68631628 -15.70189151 34.44146936 -19.13671875 25.8984375 C-19.51179144 24.57623881 -19.84257063 23.24095967 -20.13671875 21.8984375 C-20.34296875 21.07988281 -20.54921875 20.26132812 -20.76171875 19.41796875 C-21.22336887 16.08543196 -21.26266412 14.09940095 -20.13671875 10.8984375 C-15.89784963 6.87839547 -10.31365958 4.47276327 -5.13671875 1.8984375 C-2.13671875 -0.1015625 -2.13671875 -0.1015625 0 0 Z M6.86328125 16.8984375 C6.3321875 17.48753906 5.80109375 18.07664062 5.25390625 18.68359375 C4.5475 19.43511719 3.84109375 20.18664062 3.11328125 20.9609375 C2.4171875 21.71503906 1.72109375 22.46914062 1.00390625 23.24609375 C-1.13671875 24.8984375 -1.13671875 24.8984375 -3.26171875 24.7109375 C-5.26345448 23.84351868 -7.21345504 22.92875735 -9.13671875 21.8984375 C-7.48479263 26.10334036 -6.12443206 26.70826685 -2.13671875 29.8984375 C1.49328125 26.2684375 5.12328125 22.6384375 8.86328125 18.8984375 C8.20328125 18.2384375 7.54328125 17.5784375 6.86328125 16.8984375 Z " fill="#000000" transform="translate(100.13671875,42.1015625)"/>
<path d="M0 0 C3.54865312 1.24847452 6.21722432 3.08464283 8.68359375 5.96875 C10.66956011 10.5417764 10.31540387 14.89140811 10.1875 19.8125 C10.125625 23.174375 10.06375 26.53625 10 30 C0.43 30 -9.14 30 -19 30 C-19.061875 26.803125 -19.12375 23.60625 -19.1875 20.3125 C-19.21481201 19.31387939 -19.24212402 18.31525879 -19.27026367 17.28637695 C-19.31631011 12.37228102 -19.26582789 8.95459254 -16 5 C-10.64170617 0.29515664 -7.04590651 -0.83028686 0 0 Z " fill="#000000" transform="translate(175,28)"/>
</svg>
